<svg xmlns="http://www.w3.org/2000/svg" viewBox="0 0 521.2 518.41"><defs><style>.cls-1{fill:#f0f0f0;}.cls-2{fill:none;stroke:#000;stroke-miterlimit:10;stroke-width:4px;}</style></defs><g id="Слой_2" data-name="Слой 2"><g id="Слой_1-2" data-name="Слой 1"><path class="cls-1" d="M472.79,161.89l24-7.79,16.69,51.35-23.69,7.71,4.18,43.43L519,259.21l-5.63,53.71-24.78-2.6L474.74,351.7l21.83,12.59-27,46.77L448,398.61l-29.48,32.16,14.82,20.39-43.68,31.75L375,462.75l-40,17.39,5.24,24.65h0L287.43,516l-5.18-24.36-43.63-.4-5.24,24.65-52.83-11.21h0l5.18-24.36L146,462.23l-14.81,20.39L87.53,450.88l14.64-20.15L73.28,398.05l-21.83,12.6-27-46.76L46,351.43,32.91,309.82,7.85,312.45,2.2,258.75,27,256.14l5-43.35L8,205l16.68-51.36,23.7,7.7,22.15-37.59L51.76,106.9,87.89,66.76l18.52,16.67,35.53-25.32-10.26-23,49.33-22,10.14,22.76,42.76-8.68V2h54V26.92l42.52,9.43,10.24-23L390,35.27,379.88,58,415,84l18.72-16.87,36.15,40.12-18.51,16.68ZM290.63,259a30,30,0,1,0-30,30A30,30,0,0,0,290.63,259Z"/><polyline class="cls-2" points="233.91 29 233.91 27.2 233.91 2"/><polyline class="cls-2" points="287.91 2 287.91 26.92 287.91 29"/><polyline class="cls-2" points="289.91 2 287.91 2 233.91 2 231.91 2"/><polyline class="cls-2" points="234.91 27 233.91 27.2 191.15 35.88 190.63 35.99"/><polyline class="cls-2" points="142.67 59.76 141.94 58.11 131.68 35.09"/><polyline class="cls-2" points="181.01 13.12 191.15 35.88 192 37.79"/><polyline class="cls-2" points="182.84 12.31 181.01 13.12 131.68 35.09 129.86 35.9"/><polyline class="cls-2" points="142.77 57.52 141.94 58.11 106.41 83.43 105.98 83.74"/><polyline class="cls-2" points="71.83 124.97 70.49 123.76 51.76 106.9"/><polyline class="cls-2" points="87.89 66.76 106.41 83.43 107.96 84.83"/><polyline class="cls-2" points="89.23 65.28 87.89 66.76 51.76 106.9 50.42 108.39"/><polyline class="cls-2" points="71.01 122.88 70.49 123.76 48.34 161.35 48.07 161.8"/><polyline class="cls-2" points="33.64 213.35 31.92 212.79 7.96 205.01"/><polyline class="cls-2" points="24.64 153.65 48.34 161.35 50.32 161.99"/><polyline class="cls-2" points="25.26 151.75 24.64 153.65 7.96 205.01 7.34 206.91"/><polyline class="cls-2" points="32.04 211.78 31.92 212.79 26.97 256.14 26.91 256.67"/><polyline class="cls-2" points="34.7 309.63 32.91 309.82 7.85 312.45"/><polyline class="cls-2" points="2.19 258.75 2.2 258.75 26.97 256.14 29.05 255.92"/><polyline class="cls-2" points="1.99 256.76 2.2 258.75 7.85 312.45 8.06 314.44"/><polyline class="cls-2" points="32.6 308.84 32.91 309.82 46.02 351.43 46.18 351.93"/><polyline class="cls-2" points="74.83 397.15 73.28 398.05 51.45 410.65"/><polyline class="cls-2" points="24.44 363.89 46.02 351.43 47.83 350.39"/><polyline class="cls-2" points="23.44 362.16 24.44 363.89 51.45 410.65 52.45 412.38"/><polyline class="cls-2" points="72.6 397.28 73.28 398.05 102.17 430.73 102.52 431.13"/><polyline class="cls-2" points="147.09 460.78 146.03 462.23 131.22 482.62"/><polyline class="cls-2" points="87.53 450.89 87.53 450.88 102.17 430.73 103.4 429.04"/><polyline class="cls-2" points="85.92 449.71 87.53 450.88 131.22 482.62 132.84 483.8"/><polyline class="cls-2" points="145.11 461.81 146.03 462.23 185.73 480.34 186.21 480.56"/><polyline class="cls-2" points="238.99 489.51 238.62 491.27 233.38 515.92"/><polyline class="cls-2" points="180.55 504.7 185.73 480.34 186.17 478.29"/><polyline class="cls-2" points="178.6 504.29 180.55 504.7 180.55 504.71 233.38 515.92 235.33 516.34"/><polyline class="cls-2" points="237.59 491.26 238.62 491.27 282.25 491.67 282.77 491.67"/><polyline class="cls-2" points="334.63 478.38 335 480.14 340.24 504.79"/><polyline class="cls-2" points="287.43 516.03 282.25 491.67 281.81 489.62"/><polyline class="cls-2" points="285.47 516.45 287.43 516.03 340.24 504.8 342.2 504.38"/><polyline class="cls-2" points="334.06 480.55 335 480.14 375.01 462.75 375.5 462.54"/><polyline class="cls-2" points="417.47 429.32 418.52 430.77 433.34 451.16"/><polyline class="cls-2" points="389.66 482.91 375.01 462.75 373.79 461.07"/><polyline class="cls-2" points="388.04 484.08 389.66 482.91 433.34 451.16 434.96 449.98"/><polyline class="cls-2" points="417.83 431.52 418.52 430.77 448 398.61 448.36 398.22"/><polyline class="cls-2" points="473.19 350.8 474.74 351.7 496.57 364.29"/><polyline class="cls-2" points="469.59 411.06 469.58 411.06 448 398.61 446.2 397.57"/><polyline class="cls-2" points="468.58 412.79 469.58 411.06 496.57 364.29 497.57 362.56"/><polyline class="cls-2" points="474.42 352.66 474.74 351.7 488.59 310.32 488.76 309.82"/><polyline class="cls-2" points="492.15 256.4 493.94 256.59 519 259.21"/><polyline class="cls-2" points="513.38 312.92 513.37 312.92 488.59 310.32 486.52 310.1"/><polyline class="cls-2" points="513.16 314.91 513.37 312.92 519 259.21 519.21 257.23"/><polyline class="cls-2" points="494.04 257.6 493.94 256.59 489.76 213.16 489.71 212.63"/><polyline class="cls-2" points="471.08 162.45 472.79 161.89 496.76 154.1"/><polyline class="cls-2" points="513.46 205.45 513.45 205.45 489.76 213.16 487.78 213.8"/><polyline class="cls-2" points="514.07 207.35 513.45 205.45 496.76 154.1 496.14 152.2"/><polyline class="cls-2" points="473.29 162.78 472.79 161.89 451.31 123.92 451.05 123.46"/><polyline class="cls-2" points="413.62 85.19 414.95 83.99 433.67 67.12"/><polyline class="cls-2" points="469.82 107.24 451.31 123.92 449.76 125.31"/><polyline class="cls-2" points="471.16 108.73 469.82 107.24 433.67 67.12 432.34 65.64"/><polyline class="cls-2" points="415.77 84.6 414.95 83.99 379.88 58.03 379.46 57.72"/><polyline class="cls-2" points="329.7 37.99 330.43 36.35 340.67 13.33"/><polyline class="cls-2" points="390.01 35.27 379.88 58.03 379.03 59.94"/><polyline class="cls-2" points="391.84 36.09 390.01 35.27 340.67 13.33 338.84 12.51"/><polyline class="cls-2" points="331.42 36.57 330.43 36.35 287.91 26.92 287.32 26.79"/><circle class="cls-2" cx="260.63" cy="258.99" r="30"/></g></g></svg>