<svg xmlns="http://www.w3.org/2000/svg" viewBox="0 0 383.86 383.86"><defs><style>.cls-1{fill:#f0f0f0;}.cls-2{fill:none;stroke:#000;stroke-miterlimit:10;stroke-width:4px;}</style></defs><g id="Слой_2" data-name="Слой 2"><g id="Слой_1-2" data-name="Слой 1"><path class="cls-1" d="M88.41,64.6l-13.77-19L80,38.55l9.18-3.47,13.56,18.67.11-.08,29.89-14.81-7.24-22.31,7.32-5.06,9.81-.46L149.79,33l.14,0,33-4.85V4.63l8.52-2.56,9.48,2.59V27.78H202l32.85,5.76,7.37-22.26,8.89.25L259.29,17,252,38.86l.14,0,29.47,15.62,13.87-18.9,8.38,3,6.11,7.7L296.36,64.9l.12.09,23.2,24,19.05-13.69,7,5.43,3.43,9.2-18.73,13.48.08.11,14.68,29.95,22.34-7.14,5,7.34.43,9.81-22,7,0,.13,4.72,33,23.45.09,2.52,8.53-2.62,9.47-23.08-.09v.14l-5.71,32.86L372.65,242l-.24,8.89L367,259l-21.93-7.21,0,.13-15.58,29.49,18.92,13.85-3,8.4-7.68,6.12L319.1,296.19l-.08.11L295.1,319.54l13.71,19-5.42,7.06-9.19,3.45-13.5-18.71-.12.08-29.92,14.72,7.17,22.32-7.32,5-9.82.44L233.62,351l-.13,0-33,4.76-.06,23.45-8.53,2.53-9.47-2.62.06-23.07h-.14l-32.87-5.66-7.3,22.28-8.9-.23-8.2-5.4,7.18-21.93-.13,0-29.52-15.54L88.77,348.52l-8.39-3-6.13-7.67,13.61-18.65-.12-.08L64.46,295.28,45.46,309l-7.06-5.4-3.47-9.21,18.69-13.52-.08-.11L38.78,250.87l-22.31,7.21-5-7.33L11,240.94l21.95-7.09,0-.14-4.8-33-23.45,0-2.55-8.52,2.6-9.48,23.07,0v-.14l5.62-32.88-22.29-7.27.21-8.89,5.4-8.21,21.94,7.15,0-.14,15.5-29.53L35.19,89l3-8.4,7.66-6.14L64.46,88l.09-.12ZM41.93,191.93a150,150,0,1,0,150-150A150,150,0,0,0,41.93,191.93Z"/><path class="cls-1" d="M136.93,191.93a55,55,0,1,0,55-55A55,55,0,0,0,136.93,191.93Zm55-150a150,150,0,1,1-150,150A150,150,0,0,1,191.93,41.93Z"/><polyline class="cls-2" points="10.98 133.97 11.28 133.52 16.68 125.31 17.25 124.44"/><polyline class="cls-2" points="11.05 143.45 11.07 142.41 11.28 133.52 11.29 133.02"/><polyline class="cls-2" points="1.93 192.67 2.07 192.15 4.67 182.67 4.94 181.67"/><polyline class="cls-2" points="4.92 201.67 4.62 200.67 2.07 192.15 1.93 191.67"/><polyline class="cls-2" points="11.44 251.29 11.42 250.75 10.96 240.94 10.91 239.9"/><polyline class="cls-2" points="17.06 258.93 16.47 258.08 11.42 250.75 11.13 250.34"/><polyline class="cls-2" points="143.2 372.75 142.16 372.72 133.26 372.49 132.76 372.48"/><polyline class="cls-2" points="192.4 381.93 191.88 381.79 182.41 379.17 181.41 378.9"/><polyline class="cls-2" points="201.41 378.96 200.41 379.26 191.88 381.79 191.4 381.93"/><polyline class="cls-2" points="251.04 372.5 250.51 372.52 240.69 372.96 239.65 373.01"/><circle class="cls-2" cx="191.93" cy="191.93" r="150"/><polyline class="cls-2" points="182.93 29.93 182.93 28.08 182.93 4.63 182.93 2.93"/><polyline class="cls-2" points="200.93 2.93 200.93 4.66 200.93 27.78 200.93 29.93"/><polyline class="cls-2" points="190.93 1.93 191.45 2.07 200.93 4.66 201.93 4.93"/><polyline class="cls-2" points="181.93 4.93 182.93 4.63 191.45 2.07 191.93 1.93"/><polyline class="cls-2" points="183.93 27.93 182.93 28.08 149.93 32.93"/><polyline class="cls-2" points="133.35 40.62 132.78 38.86 125.54 16.55 125.02 14.94"/><polyline class="cls-2" points="142.14 9.39 142.67 11.03 149.79 32.98 150.47 35.07"/><polyline class="cls-2" points="132.32 11.52 132.86 11.49 142.67 11.03 143.7 10.98"/><polyline class="cls-2" points="124.68 17.15 125.54 16.55 132.86 11.49 133.27 11.21"/><polyline class="cls-2" points="133.69 38.41 132.78 38.86 102.89 53.67"/><polyline class="cls-2" points="89.5 66.1 88.41 64.6 74.64 45.62 73.64 44.25"/><polyline class="cls-2" points="88.21 33.68 89.22 35.08 102.78 53.75 104.07 55.53"/><polyline class="cls-2" points="79.53 38.74 80.04 38.55 89.22 35.08 90.19 34.71"/><polyline class="cls-2" points="74 46.46 74.64 45.62 80.04 38.55 80.34 38.15"/><polyline class="cls-2" points="89.13 63.9 88.41 64.6 64.55 87.91"/><polyline class="cls-2" points="55.65 103.88 54.16 102.79 35.19 88.99 33.82 87.99"/><polyline class="cls-2" points="44.41 73.43 45.81 74.45 64.46 88.03 66.24 89.32"/><polyline class="cls-2" points="37.72 80.93 38.15 80.59 45.81 74.45 46.62 73.8"/><polyline class="cls-2" points="34.85 89.97 35.19 88.99 38.15 80.59 38.31 80.12"/><polyline class="cls-2" points="54.63 101.89 54.16 102.79 38.66 132.32"/><polyline class="cls-2" points="35.12 150.25 33.36 149.68 11.07 142.41 9.45 141.88"/><polyline class="cls-2" points="15.04 124.77 16.68 125.31 38.62 132.46 40.71 133.14"/><polyline class="cls-2" points="33.53 148.68 33.36 149.68 27.74 182.56"/><polyline class="cls-2" points="29.92 200.7 28.07 200.7 4.62 200.67 2.92 200.67"/><polyline class="cls-2" points="2.94 182.67 4.67 182.67 27.74 182.7 29.94 182.7"/><polyline class="cls-2" points="27.92 199.7 28.07 200.7 32.87 233.71"/><polyline class="cls-2" points="40.54 250.3 38.78 250.87 16.47 258.08 14.85 258.6"/><polyline class="cls-2" points="9.32 241.47 10.96 240.94 32.91 233.85 35.01 233.17"/><polyline class="cls-2" points="38.33 249.96 38.78 250.87 53.54 280.78"/><polyline class="cls-2" points="65.96 294.19 64.46 295.28 45.46 309.02 44.09 310.01"/><polyline class="cls-2" points="33.53 295.43 34.93 294.41 53.62 280.89 55.41 279.6"/><polyline class="cls-2" points="38.59 304.12 38.4 303.62 34.93 294.41 34.57 293.45"/><polyline class="cls-2" points="46.29 309.65 45.46 309.02 38.4 303.62 38 303.31"/><polyline class="cls-2" points="63.75 294.55 64.46 295.28 87.74 319.16"/><polyline class="cls-2" points="103.69 328.08 102.59 329.58 88.77 348.52 87.77 349.89"/><polyline class="cls-2" points="73.23 339.28 74.25 337.89 87.86 319.24 89.15 317.47"/><polyline class="cls-2" points="80.72 345.98 80.38 345.56 74.25 337.89 73.6 337.08"/><polyline class="cls-2" points="89.75 348.87 88.77 348.52 80.38 345.56 79.91 345.39"/><polyline class="cls-2" points="101.7 329.11 102.59 329.58 132.11 345.12"/><polyline class="cls-2" points="150.04 348.68 149.46 350.44 142.16 372.72 141.63 374.34"/><polyline class="cls-2" points="124.52 368.73 125.06 367.09 132.24 345.16 132.93 343.07"/><polyline class="cls-2" points="133.71 372.79 133.26 372.49 125.06 367.09 124.2 366.52"/><polyline class="cls-2" points="148.46 350.27 149.46 350.44 182.33 356.1"/><polyline class="cls-2" points="200.48 353.95 200.47 355.81 200.41 379.26 200.4 380.95"/><polyline class="cls-2" points="182.4 380.9 182.41 379.17 182.47 356.1 182.48 353.9"/><polyline class="cls-2" points="199.47 355.95 200.47 355.81 233.49 351.05"/><polyline class="cls-2" points="250.09 343.4 250.66 345.16 257.83 367.48 258.35 369.1"/><polyline class="cls-2" points="241.22 374.61 240.69 372.96 233.62 351.01 232.95 348.91"/><polyline class="cls-2" points="258.69 366.89 257.83 367.48 250.51 372.52 250.09 372.81"/><polyline class="cls-2" points="249.74 345.61 250.66 345.16 280.58 330.44"/><polyline class="cls-2" points="294.01 318.04 295.1 319.54 308.81 338.56 309.81 339.94"/><polyline class="cls-2" points="295.21 350.47 294.2 349.07 280.7 330.36 279.41 328.57"/><polyline class="cls-2" points="303.91 345.43 303.39 345.62 294.2 349.07 293.23 349.43"/><polyline class="cls-2" points="309.45 337.73 308.81 338.56 303.39 345.62 303.09 346.02"/><polyline class="cls-2" points="294.37 320.25 295.1 319.54 319.02 296.3"/><polyline class="cls-2" points="327.96 280.36 329.45 281.45 348.37 295.3 349.75 296.31"/><polyline class="cls-2" points="339.11 310.84 337.72 309.82 319.1 296.19 317.33 294.89"/><polyline class="cls-2" points="345.83 303.36 345.4 303.7 337.72 309.82 336.91 310.46"/><polyline class="cls-2" points="348.72 294.32 348.37 295.3 345.4 303.7 345.24 304.16"/><polyline class="cls-2" points="328.98 282.35 329.45 281.45 345.03 251.96"/><polyline class="cls-2" points="348.62 234.04 350.38 234.62 372.65 241.96 374.27 242.49"/><polyline class="cls-2" points="368.64 259.58 367 259.04 345.07 251.83 342.99 251.14"/><polyline class="cls-2" points="372.71 250.4 372.41 250.85 367 259.04 366.42 259.91"/><polyline class="cls-2" points="372.68 240.91 372.65 241.96 372.41 250.85 372.4 251.35"/><polyline class="cls-2" points="350.21 235.62 350.38 234.62 356.09 201.76"/><polyline class="cls-2" points="353.97 183.61 355.82 183.62 379.27 183.71 380.97 183.72"/><polyline class="cls-2" points="380.89 201.72 379.17 201.71 356.09 201.62 353.89 201.61"/><polyline class="cls-2" points="381.93 191.72 381.79 192.24 379.17 201.71 378.89 202.71"/><polyline class="cls-2" points="378.97 182.71 379.27 183.71 381.79 192.24 381.93 192.72"/><polyline class="cls-2" points="355.96 184.62 355.82 183.62 351.1 150.59"/><polyline class="cls-2" points="343.48 133.98 345.24 133.42 367.58 126.28 369.2 125.76"/><polyline class="cls-2" points="374.68 142.9 373.04 143.43 351.06 150.46 348.97 151.13"/><polyline class="cls-2" points="372.59 133.07 372.61 133.62 373.04 143.43 373.08 144.46"/><polyline class="cls-2" points="366.99 125.41 367.58 126.28 372.61 133.62 372.89 134.02"/><polyline class="cls-2" points="345.69 134.33 345.24 133.42 330.56 103.47"/><polyline class="cls-2" points="318.18 90.02 319.68 88.94 338.73 75.25 340.1 74.26"/><polyline class="cls-2" points="350.61 88.87 349.21 89.88 330.48 103.36 328.7 104.64"/><polyline class="cls-2" points="345.59 80.17 345.78 80.68 349.21 89.88 349.57 90.85"/><polyline class="cls-2" points="337.9 74.61 338.73 75.25 345.78 80.68 346.17 80.98"/><polyline class="cls-2" points="320.39 89.67 319.68 88.94 296.48 64.99"/><polyline class="cls-2" points="280.55 56.02 281.65 54.53 295.52 35.63 296.53 34.26"/><polyline class="cls-2" points="311.04 44.91 310.01 46.31 296.36 64.9 295.06 66.67"/><polyline class="cls-2" points="303.57 38.19 303.9 38.61 310.01 46.31 310.66 47.12"/><polyline class="cls-2" points="294.54 35.28 295.52 35.63 303.9 38.61 304.38 38.78"/><polyline class="cls-2" points="282.54 55 281.65 54.53 252.18 38.91"/><polyline class="cls-2" points="234.26 35.3 234.84 33.54 242.21 11.28 242.74 9.67"/><polyline class="cls-2" points="259.83 15.32 259.29 16.96 252.04 38.86 251.35 40.95"/><polyline class="cls-2" points="250.65 11.23 251.1 11.53 259.29 16.96 260.15 17.53"/><polyline class="cls-2" points="241.16 11.25 242.21 11.28 251.1 11.53 251.6 11.54"/><polyline class="cls-2" points="235.84 33.72 234.84 33.54 201.99 27.78"/><circle class="cls-2" cx="191.93" cy="191.93" r="55"/></g></g></svg>