<svg xmlns="http://www.w3.org/2000/svg" viewBox="0 0 2004 2004"><defs><style>.cls-1{fill:#f0f0f0;}.cls-2{fill:none;stroke:#000;stroke-miterlimit:10;stroke-width:4px;}</style></defs><g id="Слой_2" data-name="Слой 2"><g id="Слой_1-2" data-name="Слой 1"><path class="cls-1" d="M1987,1002c0,163.43-39.8,317.56-110.24,453.23C1712.74,1771.17,1382.57,1987,1002,1987c-544,0-985-441-985-985S458,17,1002,17,1987,458,1987,1002Zm-10,0c0-538.48-436.52-975-975-975-224.28,0-430.86,75.72-595.59,203q-11.07,8.55-21.89,17.41Q364,264.26,344.36,282.18,334,291.6,324,301.32h0C140.86,478.58,27,727,27,1002c0,201,60.84,387.83,165.1,543,175,260.54,472.44,432,809.9,432a981.62,981.62,0,0,0,170.25-14.81c203.87-35.9,385.91-135.15,525.06-276.69a977.77,977.77,0,0,0,169.17-232.19C1937.08,1318.37,1977,1164.85,1977,1002Z"/><path class="cls-1" d="M1002,2c552.28,0,1000,447.72,1000,1000S1554.28,2002,1002,2002,2,1554.28,2,1002,449.72,2,1002,2Zm874.76,1453.23C1947.2,1319.56,1987,1165.43,1987,1002c0-544-441-985-985-985S17,458,17,1002s441,985,985,985C1382.57,1987,1712.74,1771.17,1876.76,1455.23Z"/><path class="cls-1" d="M1976,1001.08a36.5,36.5,0,1,0-36.5,36.5A36.5,36.5,0,0,0,1976,1001.08ZM1002,27c538.48,0,975,436.52,975,975,0,162.85-39.92,316.37-110.52,451.31a977.77,977.77,0,0,1-169.17,232.19c-139.15,141.54-321.19,240.79-525.06,276.69A981.62,981.62,0,0,1,1002,1977c-337.46,0-634.87-171.44-809.9-432C87.84,1389.83,27,1203,27,1002c0-275,113.86-523.42,297-700.67h0q10-9.7,20.36-19.14,19.59-17.93,40.16-34.77,10.82-8.85,21.89-17.41C571.14,102.72,777.72,27,1002,27Zm638.67,990.24a49.17,49.17,0,1,0-52.23-45.9A49.18,49.18,0,0,0,1640.67,1017.24ZM1679,1331a35,35,0,1,0-35,35A35,35,0,0,0,1679,1331Zm-126.27-128.59a49.17,49.17,0,1,0-52.23-45.91A49.17,49.17,0,0,0,1552.73,1202.41Zm14.28,506.9a24.46,24.46,0,1,0-24.45,24.46A24.45,24.45,0,0,0,1567,1709.31Zm-118.73-1116a54.4,54.4,0,1,0-54.39,54.4A54.39,54.39,0,0,0,1448.28,593.31ZM1447,1795.5a64.5,64.5,0,1,0-64.5,64.5A64.5,64.5,0,0,0,1447,1795.5Zm-59-569a70.5,70.5,0,1,0-70.5,70.5A70.49,70.49,0,0,0,1388,1226.5ZM1299.9,186.34a55,55,0,1,0-76.92-11.6A55,55,0,0,0,1299.9,186.34Zm-156.6-79.89a19.83,19.83,0,1,0-19.83,19.83A19.83,19.83,0,0,0,1143.3,106.45ZM1050,1921.5a15.5,15.5,0,1,0-15.5,15.5A15.5,15.5,0,0,0,1050,1921.5ZM1036.53,306a48.79,48.79,0,1,0-55.79,40.6A48.8,48.8,0,0,0,1036.53,306ZM1034,882a59,59,0,1,0-59,59A59,59,0,0,0,1034,882ZM863,622a35,35,0,1,0-35,35A35,35,0,0,0,863,622Zm-12.59,783.06A71.4,71.4,0,1,0,779,1476.45,71.4,71.4,0,0,0,850.41,1405.06ZM711.33,923.5a17.83,17.83,0,1,0-17.83,17.83A17.83,17.83,0,0,0,711.33,923.5Zm-27-767a19.83,19.83,0,1,0-19.83,19.83A19.83,19.83,0,0,0,684.33,156.5ZM619,216a55,55,0,1,0-55,55A55,55,0,0,0,619,216ZM461,721a35,35,0,1,0-35,35A35,35,0,0,0,461,721Zm-80.22,315.5a25.28,25.28,0,1,0-25.28,25.28A25.28,25.28,0,0,0,380.78,1036.5ZM328,475a55,55,0,1,0-55,55A55,55,0,0,0,328,475ZM267,1518.5a13.5,13.5,0,1,0-13.5,13.5A13.49,13.49,0,0,0,267,1518.5ZM205,1302a55,55,0,1,0-55,55A55,55,0,0,0,205,1302ZM103,1001.5A36.5,36.5,0,1,0,66.5,1038,36.5,36.5,0,0,0,103,1001.5Z"/><circle class="cls-2" cx="355.5" cy="1036.5" r="25.28"/><path class="cls-2" d="M1686.58,965a49.17,49.17,0,1,1-52.24-45.91A49.18,49.18,0,0,1,1686.58,965Z"/><path class="cls-2" d="M1598.64,1150.17a49.17,49.17,0,1,1-52.23-45.9A49.17,49.17,0,0,1,1598.64,1150.17Z"/><path class="cls-2" d="M1448.28,593.31a54.4,54.4,0,1,1-54.39-54.39A54.39,54.39,0,0,1,1448.28,593.31Z"/><path class="cls-2" d="M1036.53,306a48.79,48.79,0,1,1-40.6-55.8A48.79,48.79,0,0,1,1036.53,306Z"/><circle class="cls-2" cx="975" cy="882" r="59"/><circle class="cls-2" cx="828" cy="622" r="35"/><path class="cls-2" d="M1567,1709.31a24.46,24.46,0,1,1-24.45-24.45A24.46,24.46,0,0,1,1567,1709.31Z"/><circle class="cls-2" cx="1382.5" cy="1795.5" r="64.5"/><circle class="cls-2" cx="1317.5" cy="1226.5" r="70.5"/><circle class="cls-2" cx="1644" cy="1331" r="35"/><circle class="cls-2" cx="1939.54" cy="1001.08" r="36.5"/><circle class="cls-2" cx="273" cy="475" r="55"/><circle class="cls-2" cx="426" cy="721" r="35"/><path class="cls-2" d="M711.33,923.5a17.83,17.83,0,1,1-17.83-17.84A17.83,17.83,0,0,1,711.33,923.5Z"/><circle class="cls-2" cx="66.5" cy="1001.5" r="36.5"/><circle class="cls-2" cx="150" cy="1302" r="55"/><path class="cls-2" d="M850.41,1405.06a71.4,71.4,0,1,1-71.39-71.4A71.39,71.39,0,0,1,850.41,1405.06Z"/><circle class="cls-2" cx="253.5" cy="1518.5" r="13.5"/><circle class="cls-2" cx="1034.5" cy="1921.5" r="15.5"/><circle class="cls-2" cx="1002" cy="1002" r="1000"/><path class="cls-2" d="M1876.76,1455.23C1712.74,1771.17,1382.57,1987,1002,1987c-544,0-985-441-985-985S458,17,1002,17s985,441,985,985C1987,1165.43,1947.2,1319.56,1876.76,1455.23Z"/><path class="cls-2" d="M192.1,1545C87.84,1389.83,27,1203,27,1002c0-275,113.86-523.42,297-700.67"/><path class="cls-2" d="M1172.25,1962.19A981.62,981.62,0,0,1,1002,1977c-337.46,0-634.87-171.44-809.9-432"/><path class="cls-2" d="M1866.48,1453.31a977.77,977.77,0,0,1-169.17,232.19"/><path class="cls-2" d="M344.36,282.18q19.59-17.93,40.16-34.77"/><path class="cls-2" d="M324,301.32q10-9.7,20.36-19.14"/><path class="cls-2" d="M1697.31,1685.5c-139.15,141.54-321.19,240.79-525.06,276.69"/><path class="cls-2" d="M384.52,247.41q10.82-8.85,21.89-17.41"/><path class="cls-2" d="M406.41,230C571.14,102.72,777.72,27,1002,27c538.48,0,975,436.52,975,975,0,162.85-39.92,316.37-110.52,451.31"/><circle class="cls-2" cx="564" cy="216" r="55"/><path class="cls-2" d="M684.33,156.5a19.83,19.83,0,1,1-19.83-19.84A19.83,19.83,0,0,1,684.33,156.5Z"/><path class="cls-2" d="M1143.3,106.45a19.83,19.83,0,1,1-19.83-19.84A19.83,19.83,0,0,1,1143.3,106.45Z"/><path class="cls-2" d="M1299.9,186.34a55,55,0,1,1,11.6-76.92A55,55,0,0,1,1299.9,186.34Z"/></g></g></svg>