<svg xmlns="http://www.w3.org/2000/svg" viewBox="0 0 711.81 711.81"><defs><style>.cls-1{fill:#f0f0f0;}.cls-2{fill:none;stroke:#000;stroke-miterlimit:10;stroke-width:4px;}</style></defs><g id="Слой_2" data-name="Слой 2"><g id="Слой_1-2" data-name="Слой 1"><path class="cls-1" d="M355.9,55.9c165.69,0,300,134.31,300,300s-134.31,300-300,300-300-134.31-300-300S190.21,55.9,355.9,55.9Zm208,300a10,10,0,1,0-10,10A10,10,0,0,0,563.9,355.9Zm-153,0a55,55,0,1,0-55,55A55,55,0,0,0,410.9,355.9Zm-45-198a10,10,0,1,0-10,10A10,10,0,0,0,365.9,157.9Zm0,396a10,10,0,1,0-10,10A10,10,0,0,0,365.9,553.9Zm-198-198a10,10,0,1,0-10,10A10,10,0,0,0,167.9,355.9Z"/><path class="cls-1" d="M30.91,391.92l0-.26-.94-22-23.35,0-4.52-14.5,4.54-14.5,22.68,0v-.26l2.52-21.88L8.73,314.86l-2.21-15,6.76-13.6,22.4,3.56,0-.26,5.9-21.22-22.21-7.23.18-15.19,8.8-12.38,21.57,7,.08-.25,9.14-20-20.8-10.62,2.55-15L51.56,183.8l20.2,10.3.12-.23L84,175.52,65.15,161.78,70,147.39l12.19-9.07,18.34,13.34.16-.21,14.89-16.23L99.08,118.71l7.06-13.46,13.46-7,16,16,.18-.18,17.24-13.71L139.34,81.47l9.07-12.19,14.39-4.86,13.33,18.36.21-.15,19.17-10.84L184.91,51l10.86-10.62,15-2.54L221,58l.23-.11,20.64-7.7L234.69,28l12.39-8.79L262.27,19l7,21.58.25-.08,21.57-4.39-3.65-23.07,13.63-6.74,15,2.21,3.55,22.4.26,0,22-1V6.59l14.5-4.53,14.5,4.53V29.31h1.21L394,31.87,397.7,8.81l15-2.16,13.59,6.78-3.61,22.4.26,0,21.2,5.94,7.28-22.19,15.18.21L479,28.66,472,50.21l.25.08,20,9.19L502.87,38.7l15,2.59,10.83,10.64L518.32,72.12l.23.12,18.33,12.21,13.78-18.87L565,70.48l9,12.21L560.69,101l.22.16,16.19,14.92,16.56-16.47,13.43,7.07,7,13.49-16.08,16,.19.19,13.66,17.26,18.93-13.67L643,149l4.82,14.4-18.38,13.29.15.21,10.79,19.18,20.83-10.55,10.6,10.9,2.51,15-20.24,10.25.12.24,7.66,20.64,22.23-7.16,8.76,12.41L693,263l-21.59,7,.08.25,4.34,21.59,23.07-3.61,6.72,13.64-2.25,15-22.4,3.49,0,.26.91,22,23.35.06,4.5,14.5-4.57,14.5-22.67-.05v.26L680,393.75l23,3.7,2.18,15-6.77,13.61L676,422.49l0,.26L670.05,444l22.2,7.27-.2,15.19-8.82,12.37-21.56-7-.08.24-9.17,20,20.78,10.64-2.57,15L660,528.45,639.8,518.11l-.12.23-12.19,18.35,18.87,13.76-4.88,14.38-12.21,9-18.33-13.37-.15.21-14.91,16.21,16.49,16.54-7.07,13.44-13.47,7-16-16.07-.19.19-17.26,13.67,13.7,18.92L563,642.83l-14.4,4.83-13.3-18.38-.21.15-19.19,10.81,10.58,20.83-10.89,10.61-15,2.52L490.32,654l-.23.12-20.64,7.68L476.63,684l-12.4,8.76L449,692.9l-7-21.58-.25.08-21.58,4.35,3.62,23.07-13.64,6.73-15-2.23-3.51-22.41-.26,0-22,.93,0,23.35-14.51,4.51-14.49-4.55,0-22.68h-.27L318.29,680l-3.68,23-15,2.19L286,698.47l3.57-22.4-.25,0-21.22-5.91-7.24,22.2-15.19-.19-12.38-8.81,7-21.56-.24-.08-20-9.16L209.4,673.31l-15-2.56-10.85-10.64,10.32-20.19-.23-.12-18.34-12.18L161.57,646.5l-14.39-4.87-9.06-12.2,13.36-18.34-.21-.15-16.22-14.89-16.54,16.49-13.44-7.06L98,592l16.06-16-.18-.18-13.69-17.26L81.31,572.27l-12.18-9.08-4.84-14.4,18.36-13.32-.15-.21L71.67,516.09,50.85,526.67,40.24,515.79l-2.53-15,20.22-10.28-.12-.23-7.69-20.64-22.22,7.2-8.78-12.39L19,449.28l21.57-7-.08-.25L36.1,420.46,13,424.1,6.29,410.47l2.22-15Zm625-36c0-165.69-134.31-300-300-300s-300,134.31-300,300,134.31,300,300,300S655.9,521.59,655.9,355.9Z"/><circle class="cls-2" cx="355.9" cy="355.9" r="300"/><circle class="cls-2" cx="355.9" cy="355.9" r="55"/><polyline class="cls-2" points="341.9 31.91 341.9 29.95 341.9 6.59 341.9 4.91"/><polyline class="cls-2" points="356.9 1.91 356.4 2.06 341.9 6.59 340.9 6.91"/><polyline class="cls-2" points="370.9 31.91 370.9 29.32 370.9 6.59 370.9 4.91"/><polyline class="cls-2" points="355.9 1.91 356.4 2.06 370.9 6.59 371.9 6.91"/><polyline class="cls-2" points="342.9 29.91 341.9 29.95 319.9 30.91"/><polyline class="cls-2" points="291.42 38.08 291.11 36.15 287.45 13.07 287.19 11.41"/><polyline class="cls-2" points="301.55 6.11 301.08 6.33 287.45 13.07 286.51 13.54"/><polyline class="cls-2" points="320.06 33.55 319.64 30.95 316.1 8.54 315.83 6.88"/><polyline class="cls-2" points="300.56 6.25 301.08 6.33 316.1 8.54 317.13 8.7"/><polyline class="cls-2" points="292.1 35.95 291.11 36.15 269.54 40.53"/><polyline class="cls-2" points="242.51 52.08 241.91 50.22 234.69 28 234.18 26.39"/><polyline class="cls-2" points="247.51 18.91 247.09 19.2 234.69 28 233.84 28.61"/><polyline class="cls-2" points="270.1 43.12 269.29 40.62 262.27 19.04 261.75 17.43"/><polyline class="cls-2" points="246.56 19.21 247.09 19.2 262.27 19.04 263.32 19.02"/><polyline class="cls-2" points="242.84 49.87 241.91 50.22 221.28 57.91"/><polyline class="cls-2" points="196.4 73.53 195.51 71.8 184.91 50.98 184.15 49.48"/><polyline class="cls-2" points="196.16 39.99 195.78 40.37 184.91 50.98 184.16 51.72"/><polyline class="cls-2" points="222.25 60.38 221.04 58.02 210.75 37.83 209.99 36.31"/><polyline class="cls-2" points="195.26 40.45 195.78 40.37 210.75 37.83 211.78 37.65"/><polyline class="cls-2" points="196.38 71.31 195.51 71.8 176.34 82.64"/><polyline class="cls-2" points="154.22 101.95 153.06 100.36 139.34 81.47 138.34 80.11"/><polyline class="cls-2" points="148.72 68.86 148.41 69.28 139.34 81.47 138.72 82.31"/><polyline class="cls-2" points="177.68 84.92 176.13 82.78 162.81 64.42 161.81 63.06"/><polyline class="cls-2" points="147.91 69.45 148.41 69.28 162.81 64.42 163.79 64.09"/><polyline class="cls-2" points="153.84 99.75 153.06 100.36 135.82 114.08"/><polyline class="cls-2" points="116.98 136.62 115.61 135.22 99.08 118.72 97.89 117.52"/><polyline class="cls-2" points="106.39 104.8 106.14 105.25 99.08 118.72 98.61 119.64"/><polyline class="cls-2" points="137.5 116.11 135.65 114.25 119.61 98.2 118.42 97.02"/><polyline class="cls-2" points="105.69 105.5 106.14 105.25 119.61 98.2 120.53 97.72"/><polyline class="cls-2" points="116.28 134.5 115.61 135.22 100.72 151.46"/><polyline class="cls-2" points="85.64 176.68 84.05 175.53 65.16 161.78 63.8 160.79"/><polyline class="cls-2" points="70.19 146.9 70.03 147.4 65.16 161.78 64.83 162.78"/><polyline class="cls-2" points="102.69 153.22 100.56 151.66 82.22 138.32 80.86 137.34"/><polyline class="cls-2" points="69.61 147.71 70.03 147.4 82.22 138.32 83.06 137.71"/><polyline class="cls-2" points="84.61 174.69 84.05 175.53 71.89 193.88"/><polyline class="cls-2" points="60.94 221.13 59.19 220.25 38.38 209.63 36.88 208.87"/><polyline class="cls-2" points="41.02 194.15 40.94 194.66 38.38 209.63 38.2 210.66"/><polyline class="cls-2" points="74.11 195.31 71.77 194.1 51.56 183.81 50.05 183.03"/><polyline class="cls-2" points="40.58 195.03 40.94 194.66 51.56 183.81 52.3 183.06"/><polyline class="cls-2" points="59.6 219.34 59.19 220.25 50.05 240.28"/><polyline class="cls-2" points="43.48 268.92 41.63 268.31 19.41 261.07 17.82 260.56"/><polyline class="cls-2" points="19.61 245.37 19.59 245.88 19.41 261.07 19.41 262.13"/><polyline class="cls-2" points="52.47 241.34 49.97 240.53 28.39 233.5 26.8 232.99"/><polyline class="cls-2" points="19.3 246.31 19.59 245.88 28.39 233.5 29 232.66"/><polyline class="cls-2" points="41.9 267.35 41.63 268.31 35.73 289.52"/><polyline class="cls-2" points="33.73 318.83 31.8 318.52 8.73 314.87 7.07 314.6"/><polyline class="cls-2" points="6.46 299.31 6.53 299.82 8.73 314.87 8.88 315.89"/><polyline class="cls-2" points="38.28 290.19 35.69 289.79 13.29 286.23 11.62 285.95"/><polyline class="cls-2" points="6.29 300.3 6.53 299.82 13.29 286.23 13.76 285.29"/><polyline class="cls-2" points="31.91 317.54 31.8 318.52 29.29 340.4"/><polyline class="cls-2" points="31.89 369.67 29.93 369.67 6.58 369.64 4.89 369.64"/><polyline class="cls-2" points="1.91 354.64 2.06 355.14 6.58 369.64 6.89 370.65"/><polyline class="cls-2" points="31.91 340.67 29.29 340.67 6.61 340.64 4.92 340.64"/><polyline class="cls-2" points="1.91 355.64 2.06 355.14 6.61 340.64 6.92 339.65"/><polyline class="cls-2" points="29.89 368.67 29.93 369.67 30.88 391.67"/><polyline class="cls-2" points="38.03 420.17 36.1 420.46 13.03 424.11 11.37 424.37"/><polyline class="cls-2" points="6.07 410.01 6.29 410.48 13.03 424.11 13.49 425.05"/><polyline class="cls-2" points="33.52 391.51 30.91 391.93 8.52 395.45 6.84 395.71"/><polyline class="cls-2" points="6.21 411 6.29 410.48 8.52 395.45 8.66 394.42"/><polyline class="cls-2" points="35.91 419.49 36.1 420.46 40.47 442.05"/><polyline class="cls-2" points="51.98 469.07 50.13 469.68 27.91 476.88 26.3 477.39"/><polyline class="cls-2" points="18.82 464.06 19.13 464.49 27.91 476.88 28.52 477.74"/><polyline class="cls-2" points="43.05 441.49 40.55 442.3 18.98 449.29 17.36 449.81"/><polyline class="cls-2" points="19.14 465 19.13 464.49 18.98 449.29 18.96 448.25"/><polyline class="cls-2" points="49.77 468.75 50.13 469.68 57.81 490.31"/><polyline class="cls-2" points="73.42 515.21 71.67 516.1 50.85 526.67 49.35 527.43"/><polyline class="cls-2" points="39.88 515.42 40.24 515.79 50.85 526.67 51.59 527.42"/><polyline class="cls-2" points="60.28 489.36 57.94 490.55 37.72 500.82 36.22 501.58"/><polyline class="cls-2" points="40.34 516.32 40.24 515.79 37.72 500.82 37.55 499.79"/><polyline class="cls-2" points="71.19 515.22 71.67 516.1 82.5 535.26"/><polyline class="cls-2" points="101.81 557.41 100.22 558.55 81.31 572.27 79.94 573.26"/><polyline class="cls-2" points="68.72 562.88 69.14 563.2 81.31 572.27 82.16 572.89"/><polyline class="cls-2" points="84.78 533.93 82.66 535.48 64.3 548.79 62.92 549.78"/><polyline class="cls-2" points="69.31 563.68 69.14 563.2 64.3 548.79 63.95 547.79"/><polyline class="cls-2" points="99.61 557.77 100.22 558.55 113.92 575.82"/><polyline class="cls-2" points="136.44 594.66 135.06 596.05 118.52 612.54 117.33 613.74"/><polyline class="cls-2" points="104.61 605.24 105.08 605.49 118.52 612.54 119.44 613.03"/><polyline class="cls-2" points="115.95 574.13 114.09 576 98.03 592.01 96.84 593.21"/><polyline class="cls-2" points="105.31 605.95 105.08 605.49 98.03 592.01 97.56 591.09"/><polyline class="cls-2" points="134.31 595.38 135.06 596.05 151.28 610.95"/><polyline class="cls-2" points="176.47 626.04 175.32 627.63 161.57 646.5 160.57 647.88"/><polyline class="cls-2" points="146.69 641.47 147.19 641.63 161.57 646.5 162.56 646.85"/><polyline class="cls-2" points="153.03 608.98 151.49 611.1 138.13 629.43 137.13 630.79"/><polyline class="cls-2" points="147.5 642.05 147.19 641.63 138.13 629.43 137.5 628.6"/><polyline class="cls-2" points="174.49 627.08 175.32 627.63 193.66 639.8"/><polyline class="cls-2" points="220.93 650.77 220.03 652.52 209.41 673.32 208.63 674.83"/><polyline class="cls-2" points="193.91 670.66 194.43 670.75 209.41 673.32 210.44 673.5"/><polyline class="cls-2" points="195.09 637.59 193.9 639.92 183.57 660.12 182.81 661.63"/><polyline class="cls-2" points="194.81 671.13 194.43 670.75 183.57 660.12 182.82 659.38"/><polyline class="cls-2" points="219.12 652.11 220.03 652.52 240.06 661.68"/><polyline class="cls-2" points="268.69 668.25 268.07 670.13 260.83 692.33 260.31 693.92"/><polyline class="cls-2" points="245.13 692.13 245.65 692.13 260.83 692.33 261.88 692.34"/><polyline class="cls-2" points="241.12 659.26 240.29 661.76 233.26 683.33 232.75 684.92"/><polyline class="cls-2" points="246.07 692.43 245.65 692.13 233.26 683.33 232.41 682.72"/><polyline class="cls-2" points="267.12 669.86 268.07 670.13 289.3 676.03"/><polyline class="cls-2" points="318.61 678.05 318.3 680 314.62 703.04 314.35 704.72"/><polyline class="cls-2" points="299.06 705.32 299.58 705.24 314.62 703.04 315.64 702.89"/><polyline class="cls-2" points="289.96 673.48 289.55 676.08 285.98 698.48 285.7 700.14"/><polyline class="cls-2" points="300.05 705.47 299.58 705.24 285.98 698.48 285.04 698"/><polyline class="cls-2" points="317.3 679.88 318.3 680 340.17 682.51"/><polyline class="cls-2" points="369.44 679.92 369.44 681.88 369.39 705.24 369.39 706.92"/><polyline class="cls-2" points="354.38 709.9 354.88 709.75 369.39 705.24 370.39 704.92"/><polyline class="cls-2" points="340.44 679.88 340.44 682.51 340.39 705.2 340.39 706.88"/><polyline class="cls-2" points="355.38 709.9 354.88 709.75 340.39 705.2 339.39 704.88"/><polyline class="cls-2" points="368.43 681.92 369.44 681.88 391.44 680.96"/><polyline class="cls-2" points="419.94 673.83 420.24 675.75 423.86 698.83 424.12 700.5"/><polyline class="cls-2" points="409.75 705.78 410.21 705.55 423.86 698.83 424.8 698.37"/><polyline class="cls-2" points="391.29 678.32 391.69 680.91 395.2 703.33 395.46 705"/><polyline class="cls-2" points="410.75 705.63 410.21 705.55 395.2 703.33 394.17 703.17"/><polyline class="cls-2" points="419.25 675.96 420.24 675.75 441.81 671.4"/><polyline class="cls-2" points="468.86 659.9 469.45 661.76 476.63 684 477.15 685.6"/><polyline class="cls-2" points="463.81 693.07 464.24 692.75 476.63 684 477.5 683.38"/><polyline class="cls-2" points="441.25 668.82 442.06 671.33 449.05 692.9 449.56 694.51"/><polyline class="cls-2" points="464.75 692.75 464.24 692.75 449.05 692.9 448 692.91"/><polyline class="cls-2" points="468.51 662.12 469.45 661.76 490.1 654.09"/><polyline class="cls-2" points="515 638.5 515.88 640.25 526.46 661.08 527.22 662.59"/><polyline class="cls-2" points="515.2 672.04 515.57 671.68 526.46 661.08 527.21 660.35"/><polyline class="cls-2" points="489.13 651.63 490.32 653.97 500.6 674.21 501.36 675.71"/><polyline class="cls-2" points="516.09 671.6 515.57 671.68 500.6 674.21 499.56 674.38"/><polyline class="cls-2" points="515.01 640.74 515.88 640.25 535.07 629.43"/><polyline class="cls-2" points="557.23 610.15 558.38 611.74 572.08 630.65 573.07 632.02"/><polyline class="cls-2" points="562.66 643.25 562.98 642.84 572.08 630.65 572.7 629.82"/><polyline class="cls-2" points="533.74 627.15 535.27 629.28 548.58 647.66 549.57 649.02"/><polyline class="cls-2" points="563.48 642.66 562.98 642.84 548.58 647.66 547.59 648"/><polyline class="cls-2" points="557.6 612.36 558.38 611.74 575.63 598.07"/><polyline class="cls-2" points="594.5 575.54 595.88 576.93 612.38 593.48 613.57 594.67"/><polyline class="cls-2" points="605.05 607.38 605.3 606.91 612.38 593.48 612.87 592.54"/><polyline class="cls-2" points="573.97 596.01 575.83 597.88 591.84 613.95 593.02 615.13"/><polyline class="cls-2" points="605.76 606.67 605.3 606.91 591.84 613.95 590.9 614.42"/><polyline class="cls-2" points="595.22 577.66 595.88 576.93 610.79 560.73"/><polyline class="cls-2" points="625.91 535.53 627.5 536.7 646.37 550.46 647.73 551.45"/><polyline class="cls-2" points="641.32 565.34 641.49 564.84 646.37 550.46 646.71 549.46"/><polyline class="cls-2" points="608.83 558.97 610.95 560.51 629.27 573.88 630.63 574.88"/><polyline class="cls-2" points="641.9 564.52 641.49 564.84 629.27 573.88 628.43 574.5"/><polyline class="cls-2" points="626.95 537.52 627.5 536.7 639.68 518.35"/><polyline class="cls-2" points="650.68 491.11 652.42 492 673.21 502.63 674.72 503.4"/><polyline class="cls-2" points="670.54 518.13 670.63 517.62 673.21 502.63 673.38 501.61"/><polyline class="cls-2" points="637.47 516.91 639.8 518.12 660 528.46 661.5 529.23"/><polyline class="cls-2" points="671 517.24 670.63 517.62 660 528.46 659.26 529.21"/><polyline class="cls-2" points="652 492.9 652.42 492 661.6 471.98"/><polyline class="cls-2" points="668.2 443.35 670.05 443.95 692.25 451.23 693.86 451.75"/><polyline class="cls-2" points="692.04 466.94 692.05 466.42 692.25 451.23 692.26 450.18"/><polyline class="cls-2" points="659.17 470.92 661.67 471.74 683.24 478.79 684.84 479.31"/><polyline class="cls-2" points="692.36 465.99 692.05 466.42 683.24 478.79 682.63 479.63"/><polyline class="cls-2" points="669.78 444.93 670.05 443.95 675.99 422.75"/><polyline class="cls-2" points="678.02 393.44 679.97 393.75 703.01 397.45 704.68 397.73"/><polyline class="cls-2" points="705.27 413 705.2 412.48 703.01 397.45 702.87 396.42"/><polyline class="cls-2" points="673.43 422.07 676.02 422.5 698.42 426.08 700.09 426.36"/><polyline class="cls-2" points="705.42 412.02 705.2 412.48 698.42 426.08 697.96 427.02"/><polyline class="cls-2" points="679.85 394.75 679.97 393.75 682.5 371.88"/><polyline class="cls-2" points="679.93 342.62 681.89 342.62 705.25 342.68 706.93 342.68"/><polyline class="cls-2" points="709.9 357.68 709.75 357.18 705.25 342.68 704.93 341.67"/><polyline class="cls-2" points="679.88 371.62 682.5 371.63 705.17 371.68 706.88 371.68"/><polyline class="cls-2" points="709.9 356.68 709.75 357.18 705.17 371.68 704.87 372.67"/><polyline class="cls-2" points="681.93 343.62 681.89 342.62 680.99 320.62"/><polyline class="cls-2" points="673.88 292.12 675.8 291.81 698.88 288.2 700.54 287.94"/><polyline class="cls-2" points="705.83 302.31 705.6 301.85 698.88 288.2 698.41 287.26"/><polyline class="cls-2" points="678.35 320.76 680.95 320.36 703.35 316.87 705.01 316.61"/><polyline class="cls-2" points="705.67 301.31 705.6 301.85 703.35 316.87 703.2 317.89"/><polyline class="cls-2" points="676 292.8 675.8 291.81 671.47 270.23"/><polyline class="cls-2" points="659.99 243.18 661.85 242.57 684.08 235.41 685.68 234.9"/><polyline class="cls-2" points="693.14 248.25 692.84 247.82 684.08 235.41 683.48 234.56"/><polyline class="cls-2" points="668.88 270.77 671.38 269.98 692.98 263.01 694.59 262.5"/><polyline class="cls-2" points="692.84 247.29 692.84 247.82 692.98 263.01 692.99 264.06"/><polyline class="cls-2" points="662.2 243.51 661.85 242.57 654.18 221.94"/><polyline class="cls-2" points="638.62 197.01 640.37 196.13 661.2 185.57 662.71 184.81"/><polyline class="cls-2" points="672.15 196.84 671.79 196.47 661.2 185.57 660.47 184.82"/><polyline class="cls-2" points="651.73 222.88 654.07 221.69 674.3 211.44 675.8 210.69"/><polyline class="cls-2" points="671.71 195.96 671.79 196.47 674.3 211.44 674.48 212.49"/><polyline class="cls-2" points="640.86 197 640.37 196.13 629.58 176.94"/><polyline class="cls-2" points="610.29 154.76 611.88 153.62 630.82 139.94 632.17 138.96"/><polyline class="cls-2" points="643.39 149.35 642.99 149.04 630.82 139.94 629.98 139.31"/><polyline class="cls-2" points="627.28 178.28 629.42 176.74 647.8 163.44 649.16 162.46"/><polyline class="cls-2" points="642.82 148.54 642.99 149.04 647.8 163.44 648.13 164.44"/><polyline class="cls-2" points="612.5 154.41 611.88 153.62 598.23 136.35"/><polyline class="cls-2" points="575.72 117.47 577.11 116.08 593.66 99.61 594.86 98.42"/><polyline class="cls-2" points="607.57 106.94 607.1 106.69 593.66 99.61 592.74 99.13"/><polyline class="cls-2" points="596.17 138.03 598.03 136.16 614.12 120.17 615.32 118.97"/><polyline class="cls-2" points="606.86 106.22 607.1 106.69 614.12 120.17 614.6 121.09"/><polyline class="cls-2" points="577.85 116.77 577.11 116.08 560.91 101.17"/><polyline class="cls-2" points="535.74 86.03 536.88 84.45 550.66 65.58 551.65 64.22"/><polyline class="cls-2" points="565.53 70.66 565.04 70.48 550.66 65.58 549.67 65.25"/><polyline class="cls-2" points="559.14 103.14 560.7 101 574.09 82.69 575.08 81.33"/><polyline class="cls-2" points="564.74 70.06 565.04 70.48 574.09 82.69 574.71 83.53"/><polyline class="cls-2" points="537.72 85 536.88 84.45 518.55 72.25"/><polyline class="cls-2" points="491.31 61.23 492.2 59.48 502.88 38.7 503.64 37.2"/><polyline class="cls-2" points="518.36 41.38 517.85 41.3 502.88 38.7 501.83 38.52"/><polyline class="cls-2" points="517.13 74.47 518.33 72.13 528.67 51.94 529.45 50.44"/><polyline class="cls-2" points="517.47 40.92 517.85 41.3 528.67 51.94 529.42 52.67"/><polyline class="cls-2" points="493.13 59.91 492.2 59.48 472.2 50.3"/><polyline class="cls-2" points="443.57 43.67 444.19 41.81 451.46 19.63 452 18.02"/><polyline class="cls-2" points="467.19 19.84 466.64 19.84 451.46 19.63 450.42 19.61"/><polyline class="cls-2" points="471.13 52.72 471.95 50.22 479.02 28.66 479.55 27.07"/><polyline class="cls-2" points="466.23 19.54 466.64 19.84 479.02 28.66 479.88 29.27"/><polyline class="cls-2" points="445.15 42.09 444.19 41.81 422.99 35.88"/><polyline class="cls-2" points="393.68 33.81 393.99 31.88 397.7 8.81 397.98 7.16"/><polyline class="cls-2" points="413.26 6.58 412.75 6.66 397.7 8.81 396.68 8.96"/><polyline class="cls-2" points="422.31 38.42 422.73 35.84 426.33 13.44 426.61 11.78"/><polyline class="cls-2" points="412.27 6.42 412.75 6.66 426.33 13.44 427.27 13.9"/><polyline class="cls-2" points="394.99 32 393.99 31.88 372.12 29.32"/><circle class="cls-2" cx="355.9" cy="157.9" r="10"/><circle class="cls-2" cx="157.9" cy="355.9" r="10"/><circle class="cls-2" cx="355.9" cy="553.9" r="10"/><circle class="cls-2" cx="553.9" cy="355.9" r="10"/></g></g></svg>