<svg xmlns="http://www.w3.org/2000/svg" viewBox="0 0 736 1265.46"><defs><style>.cls-1{fill:#f0f0f0;}.cls-2{fill:none;stroke:#000;stroke-miterlimit:10;stroke-width:4px;}</style></defs><g id="Слой_2" data-name="Слой 2"><g id="Слой_1-2" data-name="Слой 1"><path class="cls-1" d="M283.84,167.09a45,45,0,0,1-63,63Z"/><path class="cls-1" d="M212.43,221.87A45,45,0,1,0,203,194.3,45.15,45.15,0,0,0,212.43,221.87Zm67.41-72.42A55,55,0,1,1,248,139.3,54.95,54.95,0,0,1,279.84,149.45Z"/><path class="cls-1" d="M283.84,167.09l-63,63a45.15,45.15,0,0,1-8.36-8.27l63.14-63.14A45.46,45.46,0,0,1,283.84,167.09Z"/><path class="cls-1" d="M275.57,158.73l-63.14,63.14a45,45,0,0,1,63.14-63.14Z"/><path class="cls-1" d="M330.5,723.3A32.5,32.5,0,1,1,298,755.8,32.5,32.5,0,0,1,330.5,723.3Zm25.28,32.5a25.28,25.28,0,1,0-25.28,25.28A25.28,25.28,0,0,0,355.78,755.8Z"/><path class="cls-1" d="M330.5,745a10.83,10.83,0,1,1-10.84,10.83A10.83,10.83,0,0,1,330.5,745Z"/><path class="cls-1" d="M330.5,730.52a25.28,25.28,0,1,1-25.28,25.28A25.28,25.28,0,0,1,330.5,730.52Zm10.83,25.28a10.84,10.84,0,1,0-10.83,10.83A10.83,10.83,0,0,0,341.33,755.8Z"/><path class="cls-1" d="M401,395.3a45,45,0,1,1-45,45A45,45,0,0,1,401,395.3Zm35,45a35,35,0,1,0-35,35A35,35,0,0,0,436,440.3Z"/><path class="cls-1" d="M401,405.3a35,35,0,1,1-35,35A35,35,0,0,1,401,405.3Zm15,35a15,15,0,1,0-15,15A15,15,0,0,0,416,440.3Z"/><circle class="cls-1" cx="401" cy="440.3" r="15"/><path class="cls-1" d="M668.5,625a17.83,17.83,0,1,1-17.84,17.83A17.83,17.83,0,0,1,668.5,625Z"/><path class="cls-1" d="M668.5,601.19a41.61,41.61,0,1,1-41.61,41.61A41.61,41.61,0,0,1,668.5,601.19Zm17.83,41.61a17.84,17.84,0,1,0-17.83,17.83A17.83,17.83,0,0,0,686.33,642.8Z"/><path class="cls-1" d="M668.5,589.3A53.5,53.5,0,1,1,615,642.8,53.5,53.5,0,0,1,668.5,589.3Zm41.61,53.5a41.61,41.61,0,1,0-41.61,41.61A41.61,41.61,0,0,0,710.11,642.8Z"/><path class="cls-1" d="M679.65,706.42a65,65,0,1,1-14.64-129q2-.12,4-.12a65,65,0,0,1,10.65,129.12ZM722,642.8a53.5,53.5,0,1,0-53.5,53.5A53.5,53.5,0,0,0,722,642.8Z"/><path class="cls-1" d="M715,596.34a64.8,64.8,0,0,0-46-19q-2,0-4,.12v-.12L565.84,465.79a108.45,108.45,0,0,1-26.61-86.4l1.9-14.4a169.67,169.67,0,0,0-45.19-139L352,73.38,300.68,19q8.42-8.13,17-16l.29.31L520.22,216.57a169.66,169.66,0,0,1,45.18,139L563.5,370a108.45,108.45,0,0,0,26.61,86.4L715,596.3Z"/><path class="cls-1" d="M679.65,706.42,520.24,763.2A179,179,0,0,0,428,837.82L166,1262.3l-.18.12q-8.31-12.4-16.22-25.09l45.59-73.91L407.54,819.13l0-.06a179,179,0,0,1,92.27-74.61L634,697.3l.1-.16a65,65,0,0,0,45.55,9.28Z"/><path class="cls-1" d="M160.84,994.09a45,45,0,0,1-63,63.05Z"/><path class="cls-1" d="M160.84,994.09l-63,63.05a45.15,45.15,0,0,1-8.36-8.27l63.14-63.14A45.46,45.46,0,0,1,160.84,994.09Z"/><path class="cls-1" d="M152.57,985.73a45,45,0,1,0,8.27,8.36A45.46,45.46,0,0,0,152.57,985.73ZM125,966.3a55,55,0,1,1-15.63,2.26A55,55,0,0,1,125,966.3Z"/><path class="cls-1" d="M152.57,985.73l-63.14,63.14a45,45,0,0,1,63.14-63.14Z"/><path class="cls-1" d="M195.19,1163.42l-45.59,73.91A969,969,0,0,1,8.73,836.45L10,836.3a116.1,116.1,0,0,0,70.5-29.56l.5.56c4.61,54.85,14.31,110.5,28,160l.37,1.26a55,55,0,1,0,37.2,103.35l.63,1.41c14.46,32.41,28.34,58.28,47.8,90Z"/><path class="cls-1" d="M41.05,698.3a22.95,22.95,0,1,1-22.94,23A22.95,22.95,0,0,1,41.05,698.3Z"/><path class="cls-1" d="M41.5,684.3A36.5,36.5,0,1,1,5,720.8,36.5,36.5,0,0,1,41.5,684.3Zm22.5,37a22.95,22.95,0,1,0-23,22.94A22.95,22.95,0,0,0,64,721.25Z"/><path class="cls-1" d="M81.54,636.8A114.48,114.48,0,0,1,119,721.3a114.55,114.55,0,0,1-38.5,85.44A116.1,116.1,0,0,1,10,836.3l-1.27.15a988.47,988.47,0,0,1,0-230.3l1.27.15A116.09,116.09,0,0,1,81.54,636.8ZM78,720.8a36.5,36.5,0,1,0-36.5,36.5A36.5,36.5,0,0,0,78,720.8Z"/><path class="cls-1" d="M299,20.63,300.68,19,352,73.38l-1,.92a939.51,939.51,0,0,0-69,75l-2.16.15a55,55,0,1,0-63.34,89.93l-.09.13C143.26,355.39,95.7,492.72,82,636.3l-.46.5A116.09,116.09,0,0,0,10,606.3l-1.27-.15C35.65,377.34,141.8,172.77,299,20.63Z"/><path class="cls-1" d="M665,577.3v.12A65,65,0,0,0,634.1,697.14l-.1.16L499.83,744.46a179,179,0,0,0-92.27,74.61l0,.06L195.19,1163.42l-.19-.12c-19.46-31.7-33.34-57.57-47.8-90l-.63-1.41a55,55,0,0,0-37.2-103.35L109,967.3c-13.69-49.5-23.39-105.15-28-160l-.5-.56A114.55,114.55,0,0,0,119,721.3a114.48,114.48,0,0,0-37.46-84.5l.46-.5c13.7-143.58,61.26-280.91,134.41-396.79l.09-.13a55,55,0,0,0,63.34-89.93l2.16-.15a939.51,939.51,0,0,1,69-75l1-.92L495.94,226a169.67,169.67,0,0,1,45.19,139l-1.9,14.4a108.45,108.45,0,0,0,26.61,86.4Zm-76.24,10.5a20.76,20.76,0,0,0-2.41-30.4l-68.16-53.71a25.7,25.7,0,0,0-28-2.48L191.53,660.61a10,10,0,0,0,3.41,18.72l259.8,33.85a31.7,31.7,0,0,0,27.38-9.92ZM446,440.3a45,45,0,1,0-45,45A45,45,0,0,0,446,440.3ZM363,755.8a32.5,32.5,0,1,0-32.5,32.5A32.5,32.5,0,0,0,363,755.8Z"/><path class="cls-2" d="M167.09,1264.33c-.43-.63-.85-1.27-1.27-1.91q-8.31-12.4-16.22-25.09A969,969,0,0,1,8.73,836.45a988.47,988.47,0,0,1,0-230.3C35.65,377.34,141.8,172.77,299,20.63"/><path class="cls-2" d="M299,20.63,300.68,19q8.42-8.13,17-16c.54-.51,1.09-1,1.64-1.51"/><circle class="cls-2" cx="401" cy="440.3" r="35"/><circle class="cls-2" cx="401" cy="440.3" r="45"/><circle class="cls-2" cx="401" cy="440.3" r="15"/><circle class="cls-2" cx="330.5" cy="755.8" r="25.28"/><circle class="cls-2" cx="330.5" cy="755.8" r="32.5"/><path class="cls-2" d="M341.33,755.8A10.84,10.84,0,1,1,330.5,745,10.83,10.83,0,0,1,341.33,755.8Z"/><path class="cls-2" d="M282,149.3a939.51,939.51,0,0,1,69-75"/><path class="cls-2" d="M82,636.3c13.7-143.58,61.26-280.91,134.41-396.79"/><path class="cls-2" d="M109,967.3c-13.69-49.5-23.39-105.15-28-160"/><path class="cls-2" d="M195,1163.3c-19.46-31.7-33.34-57.57-47.8-90"/><path class="cls-2" d="M715,596.34a65,65,0,1,1-50-18.92q2-.12,4-.12A64.8,64.8,0,0,1,715,596.34Z"/><path class="cls-2" d="M680,706.3l-.35.12L520.24,763.2A179,179,0,0,0,428,837.82L166,1262.3"/><path class="cls-2" d="M318,3.3,520.22,216.57a169.66,169.66,0,0,1,45.18,139L563.5,370a108.45,108.45,0,0,0,26.61,86.4L715,596.3"/><path class="cls-2" d="M300,18.3l.68.72L352,73.38,495.94,226a169.67,169.67,0,0,1,45.19,139l-1.9,14.4a108.45,108.45,0,0,0,26.61,86.4L665,577.3"/><path class="cls-2" d="M634,697.3,499.83,744.46a179,179,0,0,0-92.27,74.61"/><polyline class="cls-2" points="407.54 819.13 195.19 1163.42 149.6 1237.33 149 1238.3"/><circle class="cls-2" cx="668.5" cy="642.8" r="41.61"/><circle class="cls-2" cx="668.5" cy="642.8" r="53.5"/><path class="cls-2" d="M686.33,642.8A17.84,17.84,0,1,1,668.5,625,17.83,17.83,0,0,1,686.33,642.8Z"/><path class="cls-2" d="M283.84,167.09a45,45,0,1,1-8.27-8.36A45.46,45.46,0,0,1,283.84,167.09Z"/><path class="cls-2" d="M279.84,149.45A55,55,0,1,1,248,139.3,54.95,54.95,0,0,1,279.84,149.45Z"/><polyline class="cls-2" points="276 158.3 275.57 158.73 212.43 221.87 212 222.3"/><polyline class="cls-2" points="283.99 166.94 283.84 167.09 220.79 230.14 219.99 230.94"/><path class="cls-2" d="M160.84,994.09a45,45,0,1,1-8.27-8.36A45.46,45.46,0,0,1,160.84,994.09Z"/><path class="cls-2" d="M109.37,968.56A55,55,0,1,1,70,1021.3,54.84,54.84,0,0,1,109.37,968.56Z"/><polyline class="cls-2" points="153 985.3 152.57 985.73 89.43 1048.87 89 1049.3"/><polyline class="cls-2" points="160.99 993.94 160.84 994.09 97.79 1057.14 96.99 1057.94"/><path class="cls-2" d="M10,606.3a116.09,116.09,0,0,1,71.54,30.5A114.48,114.48,0,0,1,119,721.3a114.55,114.55,0,0,1-38.5,85.44A116.1,116.1,0,0,1,10,836.3"/><path class="cls-2" d="M64,721.25a22.95,22.95,0,1,1-23-23A22.95,22.95,0,0,1,64,721.25Z"/><circle class="cls-2" cx="41.5" cy="720.8" r="36.5"/><path class="cls-2" d="M482.12,703.26,588.76,587.8a20.76,20.76,0,0,0-2.41-30.4l-68.16-53.71a25.7,25.7,0,0,0-28-2.48L191.53,660.61a10,10,0,0,0,3.41,18.72l259.8,33.85A31.7,31.7,0,0,0,482.12,703.26Z"/></g></g></svg>