<svg xmlns="http://www.w3.org/2000/svg" viewBox="0 0 114 114"><defs><style>.cls-1{fill:#f0f0f0;}.cls-2{fill:none;stroke:#000;stroke-miterlimit:10;stroke-width:4px;}</style></defs><g id="Слой_2" data-name="Слой 2"><g id="Слой_1-2" data-name="Слой 1"><path class="cls-1" d="M92.84,29.79a45.46,45.46,0,0,0-8.27-8.36A45,45,0,0,0,21.43,84.57a45.46,45.46,0,0,0,8.36,8.27,45,45,0,0,0,63.05-63ZM57,2A55,55,0,1,1,2,57,55,55,0,0,1,57,2Z"/><path class="cls-1" d="M84.57,21.43,21.43,84.57A45,45,0,0,1,84.57,21.43Z"/><path class="cls-1" d="M92.84,29.79l-63,63.05a45.46,45.46,0,0,1-8.36-8.27L84.57,21.43A45.46,45.46,0,0,1,92.84,29.79Z"/><path class="cls-1" d="M92.84,29.79a45,45,0,0,1-63,63.05Z"/><path class="cls-2" d="M92.84,29.79a45,45,0,0,1-63,63.05,45.46,45.46,0,0,1-8.36-8.27A45,45,0,0,1,84.57,21.43,45.46,45.46,0,0,1,92.84,29.79Z"/><circle class="cls-2" cx="57" cy="57" r="55"/><polyline class="cls-2" points="85 21 84.57 21.43 21.43 84.57 21 85"/><polyline class="cls-2" points="92.99 29.64 92.84 29.79 29.79 92.84 28.99 93.64"/></g></g></svg>