<svg xmlns="http://www.w3.org/2000/svg" viewBox="0 0 545.86 545.86"><defs><style>.cls-1{fill:#f0f0f0;}.cls-2{fill:none;stroke:#000;stroke-miterlimit:10;stroke-width:4px;}</style></defs><g id="Слой_2" data-name="Слой 2"><g id="Слой_1-2" data-name="Слой 1"><path class="cls-1" d="M497.13,253.91q.8,9.41.8,19c0,6.43-.27,12.81-.8,19.1l-1.2-.1H317a48.12,48.12,0,0,0,0-38H496.93Z"/><path class="cls-1" d="M317,291.93a48.12,48.12,0,1,1,3.91-19A48,48,0,0,1,317,291.93Zm-14.09-19a30,30,0,1,0-30,30A30,30,0,0,0,302.93,272.93Z"/><path class="cls-1" d="M48.93,253.93H228.84a48.12,48.12,0,0,0,0,38H48.93l-.2,0q-.79-9.4-.8-19t.8-19Z"/><path class="cls-1" d="M27.93,281.74l-23.28,0-2.44-9,2.62-9,23.36,0,1.38-20.41-23-3.66-1-9.24,4-8.51,23.06,3.67,4.56-20-22.14-7.21.45-9.27,5.28-7.79L43,188.6l7.61-19L29.87,159l1.9-9.11,6.43-6.85L59,153.69l10.5-17.57-18.83-13.7,3.3-8.69L61.39,108,80.28,121.7,93.39,106,76.94,89.52l4.6-8.06,8.25-4.54L106.3,93.44,121.71,80,108,61.13l5.82-7.24,8.84-3.19,13.72,18.9,17.33-10.9L143.17,38l6.9-6.25,9.22-1.76,10.6,20.81,18.81-8-7.2-22.15,7.78-5.09,9.4-.3,7.21,22.21,19.84-5h0l-3.65-23,8.48-3.82,9.33,1.17,3.65,23.06,20.38-1.84V4.66l9-2.45,9,2.62V28.16l21.16,1.48h0l3.71-23,9.23-1,8.51,4-3.72,23.06,19.93,4.59L348,15.22l9.28.47L365.07,21l-7.28,22.19,19,7.66,10.62-20.72,9.1,1.92,6.85,6.45L392.67,59.28l17.54,10.54L424,51l8.69,3.32,5.74,7.44L424.6,80.63l15.68,13.15,16.5-16.42L464.84,82l4.53,8.25-16.56,16.47,13.43,15.44,18.87-13.64,7.23,5.84,3.17,8.85-18.93,13.68,10.86,17.35,20.77-10.52,6.22,6.89,1.75,9.25L495.35,170.4l8,18.83,22.16-7.14,5.07,7.78.28,9.4-22.23,7.16,5,19.86,23-3.59,3.8,8.48-1.19,9.33-23.08,3.6,1.8,20.38,23.28.06,2.43,9-2.64,9-23.35-.06-1.41,20.42,23,3.69,1,9.25-4,8.5-23.05-3.71-4.59,19.94,22.13,7.25-.48,9.3-5.28,7.75-22.2-7.27-7.65,19,20.72,10.61-1.91,9.09-6.45,6.86-20.78-10.65-10.52,17.55L495,423.78l-3.31,8.68-7.44,5.76-18.86-13.77-13.14,15.7,16.43,16.49L464,464.71l-8.24,4.52-16.49-16.55-15.42,13.44L437.51,485l-5.83,7.24-8.85,3.18-13.7-18.93-17.34,10.87,10.54,20.77-6.91,6.24-9.22,1.75-10.57-20.83-18.82,8L364,525.44l-7.79,5.09-9.39.29-7.18-22.23-19.85,5,3.6,23-8.48,3.81-9.32-1.19-3.62-23.07-20.38,1.82,0,23.28-9,2.43-9-2.63,0-23.35-20.42-1.4-3.68,23-9.25,1-8.49-4,3.68-23.07-19.94-4.57-7.22,22.13-9.29-.46L181.18,525l7.24-22.21-19-7.63L158.84,515.9l-9.11-1.9-6.84-6.44,10.62-20.8L136,476.25l-13.71,18.82-8.69-3.3-5.75-7.43,13.74-18.88-15.7-13.12L89.37,468.78l-8.06-4.62-4.54-8.24,16.54-16.49L79.85,424,61,437.67l-7.24-5.83L50.57,423l18.91-13.71L58.61,392,37.85,402.51l-6.24-6.88-1.76-9.25L50.67,375.8l-8-18.82-22.15,7.18-5.09-7.79L15.1,347l22.21-7.19-5-19.85-23,3.62-3.8-8.48,1.17-9.32,23.07-3.64Zm470-8.81q0-9.62-.8-19c-9.65-115.36-106.35-206-224.2-206s-214.55,90.62-224.2,206q-.79,9.41-.8,19t.8,19c9.65,115.36,106.35,206,224.2,206s214.5-90.58,224.2-205.9C497.66,285.74,497.93,279.36,497.93,272.93Z"/><path class="cls-2" d="M497.13,253.91q.8,9.41.8,19c0,6.43-.27,12.81-.8,19.1-9.7,115.32-106.37,205.9-224.2,205.9S58.38,407.31,48.73,292q-.79-9.4-.8-19t.8-19c9.65-115.36,106.35-206,224.2-206S487.48,138.55,497.13,253.91Z"/><polyline class="cls-2" points="263.93 29.93 263.93 27.94 263.93 4.66 263.93 2.93"/><polyline class="cls-2" points="281.93 2.93 281.93 4.83 281.93 28.16 281.93 29.93"/><polyline class="cls-2" points="262.93 4.93 263.93 4.66 272.9 2.21 273.93 1.93"/><polyline class="cls-2" points="282.8 5.08 281.93 4.83 272.9 2.21 271.93 1.93"/><polyline class="cls-2" points="241.93 29.93 243.55 29.78 263.93 27.94"/><polyline class="cls-2" points="226.05 34.33 225.74 32.36 222.09 9.37 221.82 7.66"/><polyline class="cls-2" points="239.6 4.84 239.9 6.72 243.55 29.78 243.82 31.51"/><polyline class="cls-2" points="221.15 9.79 222.09 9.37 230.57 5.55 231.54 5.11"/><polyline class="cls-2" points="240.79 6.83 239.9 6.72 230.57 5.55 229.57 5.42"/><polyline class="cls-2" points="204.32 37.77 205.89 37.37 225.73 32.36"/><polyline class="cls-2" points="189.31 44.59 188.7 42.7 181.5 20.55 180.97 18.91"/><polyline class="cls-2" points="198.09 13.35 198.68 15.16 205.89 37.37 206.43 39.03"/><polyline class="cls-2" points="180.64 21.12 181.5 20.55 189.28 15.46 190.18 14.87"/><polyline class="cls-2" points="199.58 15.13 198.68 15.16 189.28 15.46 188.27 15.49"/><polyline class="cls-2" points="168.39 51.39 169.89 50.75 188.7 42.7"/><polyline class="cls-2" points="154.64 60.47 153.74 58.7 143.17 37.95 142.39 36.41"/><polyline class="cls-2" points="158.43 28.25 159.29 29.94 169.89 50.75 170.68 52.31"/><polyline class="cls-2" points="142.4 38.65 143.17 37.95 150.07 31.7 150.85 30.99"/><polyline class="cls-2" points="160.17 29.77 159.29 29.94 150.07 31.7 149.06 31.89"/><polyline class="cls-2" points="135.04 70.46 136.41 69.6 153.74 58.7"/><polyline class="cls-2" points="122.88 81.58 121.71 79.97 108.03 61.13 107.01 59.73"/><polyline class="cls-2" points="121.58 49.16 122.69 50.7 136.41 69.6 137.44 71.01"/><polyline class="cls-2" points="107.38 61.94 108.03 61.13 113.85 53.89 114.52 53.05"/><polyline class="cls-2" points="123.54 50.39 122.69 50.7 113.85 53.89 112.9 54.23"/><polyline class="cls-2" points="105.07 94.51 106.3 93.44 121.71 79.97"/><polyline class="cls-2" points="94.8 107.4 93.39 105.99 76.94 89.52 75.72 88.3"/><polyline class="cls-2" points="88.45 75.58 89.79 76.92 106.3 93.44 107.54 94.68"/><polyline class="cls-2" points="76.42 90.42 76.94 89.52 81.54 81.46 82.08 80.52"/><polyline class="cls-2" points="90.58 76.48 89.79 76.92 81.54 81.46 80.67 81.94"/><polyline class="cls-2" points="79.24 122.95 80.28 121.7 93.39 105.99"/><polyline class="cls-2" points="71.11 137.29 69.5 136.12 50.67 122.42 49.28 121.41"/><polyline class="cls-2" points="59.86 106.85 61.39 107.97 80.28 121.7 81.7 122.73"/><polyline class="cls-2" points="50.3 123.39 50.67 122.42 53.97 113.73 54.35 112.73"/><polyline class="cls-2" points="62.11 107.41 61.39 107.97 53.97 113.73 53.17 114.35"/><polyline class="cls-2" points="58.17 155.08 59 153.69 69.5 136.12 69.5 136.11"/><polyline class="cls-2" points="52.38 170.51 50.61 169.61 29.87 159.03 28.33 158.24"/><polyline class="cls-2" points="36.51 142.21 38.2 143.07 59 153.69 60.56 154.48"/><polyline class="cls-2" points="29.66 160.04 29.87 159.03 31.77 149.92 31.99 148.88"/><polyline class="cls-2" points="38.82 142.41 38.2 143.07 31.77 149.92 31.08 150.66"/><polyline class="cls-2" points="42.39 190.11 43 188.6 50.61 169.61"/><polyline class="cls-2" points="39.08 206.25 37.19 205.64 15.05 198.43 13.41 197.9"/><polyline class="cls-2" points="18.98 180.78 20.78 181.37 43 188.6 44.66 189.14"/><polyline class="cls-2" points="15 199.47 15.05 198.43 15.5 189.16 15.55 188.08"/><polyline class="cls-2" points="21.29 180.62 20.78 181.37 15.5 189.16 14.94 189.98"/><polyline class="cls-2" points="32.27 227.17 32.63 225.59 37.19 205.64"/><polyline class="cls-2" points="31.53 243.64 29.57 243.33 6.58 239.67 4.87 239.4"/><polyline class="cls-2" points="7.7 221.62 9.57 221.92 32.63 225.59 34.36 225.86"/><polyline class="cls-2" points="6.69 240.7 6.58 239.67 5.57 230.43 5.45 229.36"/><polyline class="cls-2" points="9.95 221.1 9.57 221.92 5.57 230.43 5.14 231.34"/><polyline class="cls-2" points="28.08 265.37 28.19 263.74 29.57 243.33"/><polyline class="cls-2" points="29.92 281.74 27.93 281.74 4.65 281.72 2.92 281.72"/><polyline class="cls-2" points="2.94 263.72 4.83 263.72 28.19 263.74 29.94 263.74"/><polyline class="cls-2" points="4.92 282.72 4.65 281.72 2.21 272.75 1.93 271.72"/><polyline class="cls-2" points="5.08 262.86 4.83 263.72 2.21 272.75 1.93 273.72"/><polyline class="cls-2" points="29.91 303.74 29.76 302.12 27.93 281.74"/><polyline class="cls-2" points="34.29 319.63 32.32 319.94 9.32 323.56 7.62 323.83"/><polyline class="cls-2" points="4.82 306.05 6.69 305.76 29.76 302.12 31.49 301.85"/><polyline class="cls-2" points="9.75 324.51 9.32 323.56 5.52 315.08 5.08 314.11"/><polyline class="cls-2" points="6.8 304.86 6.69 305.76 5.52 315.08 5.39 316.09"/><polyline class="cls-2" points="37.71 341.36 37.31 339.79 32.32 319.94"/><polyline class="cls-2" points="44.53 356.37 42.63 356.98 20.48 364.16 18.84 364.69"/><polyline class="cls-2" points="13.29 347.57 15.1 346.98 37.31 339.79 38.98 339.25"/><polyline class="cls-2" points="21.05 365.03 20.48 364.16 15.39 356.37 14.81 355.48"/><polyline class="cls-2" points="15.07 346.08 15.1 346.98 15.39 356.37 15.42 357.39"/><polyline class="cls-2" points="51.31 377.3 50.67 375.8 42.63 356.98"/><polyline class="cls-2" points="60.38 391.06 58.61 391.96 37.85 402.51 36.31 403.29"/><polyline class="cls-2" points="28.16 387.24 29.85 386.38 50.67 375.8 52.23 375.01"/><polyline class="cls-2" points="38.55 403.28 37.85 402.51 31.61 395.63 30.89 394.83"/><polyline class="cls-2" points="29.68 385.5 29.85 386.38 31.61 395.63 31.8 396.61"/><polyline class="cls-2" points="70.35 410.67 69.48 409.29 58.61 391.96"/><polyline class="cls-2" points="81.47 422.84 79.85 424.01 61 437.67 59.61 438.68"/><polyline class="cls-2" points="49.04 424.11 50.57 423 69.48 409.29 70.9 408.26"/><polyline class="cls-2" points="61.81 438.32 61 437.67 53.76 431.84 52.93 431.17"/><polyline class="cls-2" points="50.27 422.15 50.57 423 53.76 431.84 54.1 432.79"/><polyline class="cls-2" points="94.38 440.65 93.31 439.43 79.85 424.01"/><polyline class="cls-2" points="107.26 450.93 105.85 452.34 89.37 468.78 88.15 470"/><polyline class="cls-2" points="75.43 457.26 76.77 455.92 93.31 439.43 94.55 438.19"/><polyline class="cls-2" points="90.27 469.3 89.37 468.78 81.31 464.16 80.38 463.63"/><polyline class="cls-2" points="76.34 455.13 76.77 455.92 81.31 464.16 81.79 465.04"/><polyline class="cls-2" points="122.8 466.5 121.55 465.46 105.85 452.34"/><polyline class="cls-2" points="137.13 474.64 135.96 476.25 122.25 495.07 121.23 496.47"/><polyline class="cls-2" points="106.69 485.87 107.81 484.34 121.55 465.46 122.58 464.05"/><polyline class="cls-2" points="123.22 495.44 122.25 495.07 113.56 491.77 112.56 491.39"/><polyline class="cls-2" points="107.25 483.62 107.81 484.34 113.56 491.77 114.18 492.57"/><polyline class="cls-2" points="154.91 487.6 153.51 486.76 135.96 476.25"/><polyline class="cls-2" points="170.34 493.4 169.43 495.17 158.84 515.9 158.05 517.44"/><polyline class="cls-2" points="142.03 509.25 142.89 507.56 153.51 486.76 154.31 485.2"/><polyline class="cls-2" points="159.85 516.11 158.84 515.9 149.73 514 148.69 513.78"/><polyline class="cls-2" points="142.23 506.94 142.89 507.56 149.73 514 150.47 514.69"/><polyline class="cls-2" points="189.93 503.41 188.42 502.8 169.43 495.17"/><polyline class="cls-2" points="206.08 506.73 205.46 508.62 198.24 530.75 197.7 532.39"/><polyline class="cls-2" points="180.59 526.81 181.18 525.01 188.42 502.8 188.96 501.14"/><polyline class="cls-2" points="199.27 530.8 198.24 530.75 188.95 530.29 187.88 530.24"/><polyline class="cls-2" points="180.43 524.5 181.18 525.01 188.95 530.29 189.78 530.86"/><polyline class="cls-2" points="226.99 513.55 225.4 513.19 205.46 508.62"/><polyline class="cls-2" points="243.45 514.3 243.14 516.27 239.46 539.26 239.19 540.96"/><polyline class="cls-2" points="221.42 538.12 221.72 536.26 225.4 513.19 225.68 511.46"/><polyline class="cls-2" points="240.49 539.15 239.46 539.26 230.21 540.26 229.16 540.37"/><polyline class="cls-2" points="220.9 535.87 221.72 536.26 230.21 540.26 231.13 540.69"/><polyline class="cls-2" points="265.18 517.78 263.56 517.67 243.14 516.27"/><polyline class="cls-2" points="281.56 515.94 281.56 517.94 281.52 541.22 281.52 542.94"/><polyline class="cls-2" points="263.52 542.92 263.52 541.02 263.56 517.67 263.56 515.92"/><polyline class="cls-2" points="282.52 540.95 281.52 541.22 272.55 543.65 271.51 543.93"/><polyline class="cls-2" points="262.65 540.77 263.52 541.02 272.55 543.65 273.51 543.93"/><polyline class="cls-2" points="303.56 515.98 301.94 516.12 281.56 517.94 281.55 517.94"/><polyline class="cls-2" points="319.45 511.61 319.76 513.57 323.36 536.57 323.63 538.28"/><polyline class="cls-2" points="305.85 541.07 305.56 539.19 301.94 516.12 301.67 514.39"/><polyline class="cls-2" points="324.31 536.15 323.36 536.57 314.88 540.38 313.9 540.82"/><polyline class="cls-2" points="304.66 539.08 305.56 539.19 314.88 540.38 315.88 540.51"/><polyline class="cls-2" points="341.18 508.2 339.61 508.59 319.76 513.57"/><polyline class="cls-2" points="356.2 501.4 356.81 503.29 363.97 525.44 364.5 527.09"/><polyline class="cls-2" points="347.37 532.62 346.79 530.82 339.61 508.59 339.07 506.93"/><polyline class="cls-2" points="364.83 524.88 363.97 525.44 356.18 530.53 355.29 531.11"/><polyline class="cls-2" points="345.88 530.85 346.79 530.82 356.18 530.53 357.19 530.5"/><polyline class="cls-2" points="377.13 494.63 375.63 495.27 356.81 503.29"/><polyline class="cls-2" points="390.89 485.57 391.79 487.34 402.33 508.11 403.11 509.65"/><polyline class="cls-2" points="387.06 517.79 386.2 516.1 375.63 495.27 374.84 493.71"/><polyline class="cls-2" points="403.1 507.41 402.33 508.11 395.42 514.35 394.64 515.06"/><polyline class="cls-2" points="385.31 516.27 386.2 516.1 395.42 514.35 396.43 514.16"/><polyline class="cls-2" points="410.51 475.61 409.13 476.47 391.79 487.34"/><polyline class="cls-2" points="422.69 464.51 423.86 466.12 437.51 484.98 438.52 486.38"/><polyline class="cls-2" points="423.94 496.93 422.83 495.4 409.13 476.47 408.11 475.06"/><polyline class="cls-2" points="438.16 484.17 437.51 484.98 431.68 492.22 431.01 493.05"/><polyline class="cls-2" points="421.98 495.7 422.83 495.4 431.68 492.22 432.63 491.88"/><polyline class="cls-2" points="440.51 451.61 439.28 452.68 423.86 466.12"/><polyline class="cls-2" points="450.8 438.73 452.21 440.15 468.64 456.64 469.86 457.86"/><polyline class="cls-2" points="457.11 470.57 455.77 469.23 439.28 452.68 438.05 451.44"/><polyline class="cls-2" points="469.16 455.74 468.64 456.64 464.01 464.71 463.48 465.63"/><polyline class="cls-2" points="454.98 469.66 455.77 469.23 464.01 464.71 464.9 464.22"/><polyline class="cls-2" points="466.39 423.21 465.35 424.45 452.21 440.15"/><polyline class="cls-2" points="474.54 408.88 476.15 410.06 494.96 423.78 496.35 424.8"/><polyline class="cls-2" points="485.74 439.34 484.21 438.22 465.35 424.45 463.93 423.42"/><polyline class="cls-2" points="495.33 422.81 494.96 423.78 491.65 432.46 491.27 433.46"/><polyline class="cls-2" points="483.5 438.77 484.21 438.22 491.65 432.46 492.44 431.85"/><polyline class="cls-2" points="487.51 391.11 486.67 392.51 476.15 410.06"/><polyline class="cls-2" points="493.32 375.69 495.09 376.6 515.81 387.21 517.35 388"/><polyline class="cls-2" points="509.14 404.02 507.45 403.16 486.67 392.51 485.11 391.71"/><polyline class="cls-2" points="516.03 386.19 515.81 387.21 513.9 396.3 513.68 397.35"/><polyline class="cls-2" points="506.84 403.81 507.45 403.16 513.9 396.3 514.59 395.57"/><polyline class="cls-2" points="503.35 356.11 502.74 357.61 495.09 376.6"/><polyline class="cls-2" points="506.67 339.96 508.57 340.58 530.7 347.83 532.33 348.36"/><polyline class="cls-2" points="526.74 365.47 524.94 364.88 502.74 357.61 501.08 357.07"/><polyline class="cls-2" points="530.75 346.79 530.7 347.83 530.22 357.13 530.17 358.18"/><polyline class="cls-2" points="524.43 365.63 524.94 364.88 530.22 357.13 530.8 356.28"/><polyline class="cls-2" points="513.52 319.06 513.16 320.64 508.57 340.58"/><polyline class="cls-2" points="514.28 302.59 516.25 302.91 539.23 306.6 540.94 306.87"/><polyline class="cls-2" points="538.08 324.65 536.21 324.35 513.16 320.64 511.43 320.36"/><polyline class="cls-2" points="539.12 305.57 539.23 306.6 540.23 315.85 540.34 316.91"/><polyline class="cls-2" points="535.83 325.16 536.21 324.35 540.23 315.85 540.66 314.93"/><polyline class="cls-2" points="517.77 280.87 517.66 282.49 516.25 302.91"/><polyline class="cls-2" points="515.95 264.49 517.94 264.49 541.22 264.55 542.95 264.55"/><polyline class="cls-2" points="542.91 282.55 541.01 282.55 517.66 282.49 515.91 282.49"/><polyline class="cls-2" points="540.95 263.55 541.22 264.55 543.65 273.51 543.93 274.55"/><polyline class="cls-2" points="540.76 283.41 541.01 282.55 543.65 273.51 543.93 272.55"/><polyline class="cls-2" points="516 242.49 516.14 244.11 517.94 264.49"/><polyline class="cls-2" points="511.64 226.6 513.61 226.29 536.61 222.7 538.32 222.43"/><polyline class="cls-2" points="541.09 240.22 539.22 240.51 516.14 244.11 514.41 244.38"/><polyline class="cls-2" points="536.19 221.75 536.61 222.7 540.41 231.18 540.85 232.16"/><polyline class="cls-2" points="539.1 241.41 539.22 240.51 540.41 231.18 540.54 230.19"/><polyline class="cls-2" points="508.25 204.86 508.64 206.43 513.61 226.29"/><polyline class="cls-2" points="501.46 189.84 503.36 189.23 525.52 182.09 527.16 181.56"/><polyline class="cls-2" points="532.68 198.69 530.87 199.27 508.64 206.43 506.98 206.97"/><polyline class="cls-2" points="524.95 181.22 525.52 182.09 530.59 189.87 531.18 190.77"/><polyline class="cls-2" points="530.9 200.18 530.87 199.27 530.59 189.87 530.56 188.87"/><polyline class="cls-2" points="494.71 168.9 495.35 170.4 503.36 189.23"/><polyline class="cls-2" points="485.66 155.13 487.44 154.23 508.21 143.71 509.75 142.93"/><polyline class="cls-2" points="517.88 158.99 516.18 159.85 495.35 170.4 493.79 171.19"/><polyline class="cls-2" points="507.51 142.94 508.21 143.71 514.43 150.6 515.16 151.4"/><polyline class="cls-2" points="516.35 160.73 516.18 159.85 514.43 150.6 514.25 149.62"/><polyline class="cls-2" points="475.72 135.5 476.58 136.88 487.44 154.23"/><polyline class="cls-2" points="464.62 123.32 466.24 122.15 485.11 108.51 486.51 107.5"/><polyline class="cls-2" points="497.05 122.09 495.51 123.2 476.58 136.88 475.16 137.91"/><polyline class="cls-2" points="484.3 107.86 485.11 108.51 492.34 114.35 493.17 115.02"/><polyline class="cls-2" points="495.82 124.05 495.51 123.2 492.34 114.35 492 113.4"/><polyline class="cls-2" points="451.74 105.48 452.81 106.71 466.24 122.15"/><polyline class="cls-2" points="438.87 95.18 440.28 93.78 456.78 77.36 458.01 76.14"/><polyline class="cls-2" points="470.71 88.91 469.37 90.24 452.81 106.71 451.56 107.95"/><polyline class="cls-2" points="455.89 76.85 456.78 77.36 464.84 81.99 465.78 82.53"/><polyline class="cls-2" points="469.8 91.03 469.37 90.24 464.84 81.99 464.36 81.11"/><polyline class="cls-2" points="423.36 79.59 424.6 80.63 440.28 93.78"/><polyline class="cls-2" points="409.04 71.42 410.21 69.82 423.95 51.02 424.97 49.62"/><polyline class="cls-2" points="439.5 60.24 438.38 61.78 424.6 80.63 423.57 82.04"/><polyline class="cls-2" points="422.98 50.65 423.95 51.02 432.64 54.34 433.63 54.72"/><polyline class="cls-2" points="438.93 62.49 438.38 61.78 432.64 54.34 432.02 53.54"/><polyline class="cls-2" points="391.28 58.44 392.67 59.28 410.21 69.82"/><polyline class="cls-2" points="375.86 52.62 376.77 50.85 387.39 30.13 388.18 28.6"/><polyline class="cls-2" points="404.2 36.82 403.34 38.5 392.67 59.28 391.87 60.84"/><polyline class="cls-2" points="386.38 29.92 387.39 30.13 396.49 32.05 397.54 32.27"/><polyline class="cls-2" points="403.99 39.12 403.34 38.5 396.49 32.05 395.76 31.36"/><polyline class="cls-2" points="356.28 42.58 357.79 43.19 376.77 50.85"/><polyline class="cls-2" points="340.14 39.24 340.76 37.34 348.02 15.22 348.56 13.58"/><polyline class="cls-2" points="365.66 19.2 365.07 21 357.79 43.19 357.25 44.85"/><polyline class="cls-2" points="346.99 15.17 348.02 15.22 357.3 15.69 358.38 15.75"/><polyline class="cls-2" points="365.82 21.51 365.07 21 357.3 15.69 356.47 15.13"/><polyline class="cls-2" points="319.24 32.38 320.83 32.75 340.76 37.34"/><polyline class="cls-2" points="302.78 31.6 303.1 29.64 306.81 6.65 307.08 4.95"/><polyline class="cls-2" points="324.85 7.82 324.55 9.69 320.83 32.75 320.55 34.47"/><polyline class="cls-2" points="305.77 6.76 306.81 6.65 316.04 5.66 317.11 5.55"/><polyline class="cls-2" points="325.36 10.07 324.55 9.69 316.04 5.66 315.14 5.24"/><polyline class="cls-2" points="281.06 28.1 281.93 28.16 303.09 29.64"/><polyline class="cls-2" points="496.93 253.93 317.02 253.93 316.93 253.93"/><circle class="cls-2" cx="272.93" cy="272.93" r="30"/><path class="cls-2" d="M317,253.93a48,48,0,1,1-44.09-29A47.75,47.75,0,0,1,317,253.93Z"/><polyline class="cls-2" points="228.93 253.93 228.84 253.93 48.93 253.93"/><polyline class="cls-2" points="228.93 291.93 228.84 291.93 48.93 291.93"/><polyline class="cls-2" points="495.93 291.93 317.02 291.93 315.93 291.93"/></g></g></svg>