<svg xmlns="http://www.w3.org/2000/svg" viewBox="0 0 817.95 817.93"><defs><style>.cls-1{fill:#f0f0f0;}.cls-2,.cls-3{fill:none;stroke:#000;stroke-miterlimit:10;}.cls-2{stroke-width:4px;}.cls-3{stroke-width:3px;}</style></defs><g id="Слой_2" data-name="Слой 2"><g id="Слой_1-2" data-name="Слой 1"><path class="cls-1" d="M778,323.13l8,54,29.93,0-.05,64.25-29.42,0-9.07,53.8,28.45,9.27L786,565.53l-28-9.11-25.25,48.36L757,622.39l-37.8,52-23.79-17.3-39,38.19L674,719.46,622,757.2l-17.28-23.81-48.85,24.29,9.23,28.47L504,806l-9.07-28-54,8,0,29.93-64.25,0V786.48l-53.8-9.06-9.26,28.46L252.48,786l9.11-28-48.37-25.23L195.62,757l-52-37.79,17.3-23.79-38.2-38.95L98.52,674l-37.75-52,23.8-17.29-24.3-48.84-28.46,9.24L12,504,40,495l-8-54H2l0-64.26H31.43l9-53.8L12,313.67l19.86-61.11,28,9.1,25.23-48.38L60.88,195.69l37.77-52L122.45,161l38.94-38.21L143.8,98.58h0l52-37.76,17.29,23.8,48.85-24.32-9.25-28.45h0L313.78,12l9.09,28,54-8V2h64.25V31.38l54.17,9.15,9.28-28.45L565.63,32l-9.12,28,48.37,25.27L622.48,61l51.95,37.82-17.3,23.78,38.18,39L719.54,144l37.72,52-23.81,17.28,24.28,48.85,28.47-9.22L806,314.06ZM766,409A357,357,0,0,0,409,52C211.81,52,52,211.8,52,409a357,357,0,0,0,357,357C606.12,765.93,766,606.11,766,409Z"/><path class="cls-1" d="M409,132.89C561.43,132.89,685,256.49,685,409S561.43,685,409,685,132.9,561.42,132.9,409,256.5,132.89,409,132.89ZM675.51,409c0-147.21-119.34-266.54-266.55-266.54S142.42,261.74,142.42,409,261.76,675.5,409,675.5,675.51,556.16,675.51,409Z"/><path class="cls-1" d="M409,142.41c147.21,0,266.55,119.33,266.55,266.54S556.17,675.5,409,675.5,142.42,556.16,142.42,409,261.76,142.41,409,142.41ZM666,409c0-141.95-115.07-257-257-257s-257,115.07-257,257S267,666,409,666,666,550.91,666,409Z"/><path class="cls-1" d="M409,151.93c142,0,257,115.07,257,257S550.92,666,409,666s-257-115.07-257-257S267,151.93,409,151.93ZM656.47,409c0-136.69-110.81-247.5-247.51-247.5S161.46,272.26,161.46,409,272.27,656.46,409,656.46,656.47,545.65,656.47,409Z"/><path class="cls-1" d="M409,161.45c136.7,0,247.51,110.81,247.51,247.5S545.66,656.46,409,656.46,161.46,545.65,161.46,409,272.27,161.45,409,161.45ZM647,409c0-131.43-106.55-238-238-238S171,277.52,171,409s106.55,238,238,238S647,540.39,647,409Z"/><path class="cls-1" d="M409,123.37c157.73,0,285.59,127.86,285.59,285.58S566.69,694.54,409,694.54,123.38,566.68,123.38,409,251.24,123.37,409,123.37ZM685,409C685,256.49,561.43,132.89,409,132.89S132.9,256.49,132.9,409,256.5,685,409,685,685,561.42,685,409Z"/><path class="cls-1" d="M409,113.85C572,113.85,704.07,246,704.07,409S572,704.06,409,704.06,113.86,571.94,113.86,409,246,113.85,409,113.85ZM694.55,409c0-157.72-127.86-285.58-285.59-285.58S123.38,251.23,123.38,409,251.24,694.54,409,694.54,694.55,566.68,694.55,409Z"/><path class="cls-1" d="M409,104.33c168.24,0,304.63,136.38,304.63,304.62S577.2,713.58,409,713.58,104.34,577.19,104.34,409,240.73,104.33,409,104.33ZM704.07,409c0-163-132.12-295.1-295.11-295.1S113.86,246,113.86,409,246,704.06,409,704.06,704.07,571.94,704.07,409Z"/><path class="cls-1" d="M716,226.73A355.37,355.37,0,0,1,766,409c0,197.16-159.83,357-357,357A356.83,356.83,0,0,1,52,409C52,211.8,211.81,52,409,52A357.51,357.51,0,0,1,716,226.73ZM713.59,409c0-168.24-136.39-304.62-304.63-304.62S104.34,240.71,104.34,409,240.73,713.58,409,713.58,713.59,577.19,713.59,409Z"/><path class="cls-1" d="M409,171c131.44,0,238,106.55,238,238s-106.55,238-238,238S171,540.39,171,409,277.53,171,409,171Zm71.4,238a71.4,71.4,0,1,0-71.4,71.4A71.39,71.39,0,0,0,480.36,409Z"/><polyline class="cls-2" points="162.68 124.57 161.39 122.79 143.8 98.58"/><polyline class="cls-2" points="195.78 60.81 213.07 84.61 214.67 86.81"/><polyline class="cls-2" points="197.71 59.41 195.78 60.81 143.79 98.57 141.87 99.97"/><polyline class="cls-2" points="162.25 121.95 161.39 122.79 122.45 161 121.89 161.55"/><polyline class="cls-2" points="755.64 262.84 757.73 262.16 786.2 252.94"/><polyline class="cls-2" points="806.01 314.06 778.02 323.13 775.44 323.97"/><polyline class="cls-2" points="806.74 316.33 806.01 314.06 786.2 252.94 785.47 250.67"/><polyline class="cls-2" points="758.27 263.24 757.73 262.16 733.45 213.31 733.1 212.6"/><polyline class="cls-2" points="693.53 162.88 695.31 161.59 719.54 144.02"/><polyline class="cls-2" points="757.27 196.03 757.26 196.03 733.45 213.31 731.26 214.9"/><polyline class="cls-2" points="758.66 197.96 757.26 196.03 719.54 144.02 718.14 142.09"/><polyline class="cls-2" points="696.16 162.45 695.31 161.59 657.13 122.62 656.58 122.06"/><polyline class="cls-2" points="376.84 34.12 376.84 31.92 376.84 2"/><polyline class="cls-2" points="441.09 1.99 441.09 2 441.09 31.38 441.09 34.12"/><polyline class="cls-2" points="443.47 2 441.09 2 376.84 2 374.46 2"/><polyline class="cls-2" points="378.03 31.74 376.84 31.92 322.87 39.96 322.1 40.07"/><polyline class="cls-2" points="262.6 62.39 261.92 60.29 252.67 31.84"/><polyline class="cls-2" points="313.78 11.98 313.78 11.99 322.87 39.96 323.71 42.54"/><polyline class="cls-2" points="316.05 11.25 313.78 11.99 252.67 31.83 252.67 31.84 250.41 32.57"/><polyline class="cls-2" points="262.99 59.76 261.92 60.29 213.07 84.61 212.38 84.96"/><polyline class="cls-2" points="323.53 775.33 322.85 777.42 313.59 805.88"/><polyline class="cls-2" points="252.48 786 261.59 758.02 262.43 755.45"/><polyline class="cls-2" points="250.22 785.26 252.48 786 313.59 805.88 315.85 806.62"/><polyline class="cls-2" points="321.66 777.22 322.85 777.42 376.65 786.48 377.42 786.61"/><polyline class="cls-2" points="440.91 783.8 440.91 786 440.89 815.93"/><polyline class="cls-2" points="376.64 815.9 376.64 815.89 376.65 786.48 376.65 783.77"/><polyline class="cls-2" points="374.26 815.89 376.64 815.89 440.89 815.93 443.27 815.93"/><polyline class="cls-2" points="439.72 786.18 440.91 786 494.88 777.99 495.65 777.88"/><polyline class="cls-2" points="555.16 755.59 555.84 757.68 565.07 786.15"/><polyline class="cls-2" points="503.95 805.98 494.88 777.99 494.04 775.41"/><polyline class="cls-2" points="501.69 806.71 503.95 805.98 565.07 786.15 567.34 785.42"/><polyline class="cls-2" points="554.76 758.22 555.84 757.68 604.69 733.39 605.39 733.04"/><polyline class="cls-2" points="603.58 87 604.88 85.22 622.48 61.02"/><polyline class="cls-2" points="674.44 98.83 674.43 98.84 657.13 122.62 655.53 124.81"/><polyline class="cls-2" points="676.36 100.24 674.43 98.84 622.48 61.02 620.56 59.62"/><polyline class="cls-2" points="605.94 85.77 604.88 85.22 556.51 59.95 555.82 59.59"/><polyline class="cls-2" points="494.58 42.62 495.26 40.53 504.54 12.08 504.54 12.07"/><polyline class="cls-2" points="565.63 31.98 565.63 31.99 556.51 59.95 555.67 62.53"/><polyline class="cls-2" points="567.89 32.73 565.63 31.99 504.54 12.08 502.27 11.34"/><polyline class="cls-2" points="496.45 40.73 495.26 40.53 441.09 31.38 440.69 31.31"/><polyline class="cls-2" points="34.13 440.99 31.93 440.99 2 440.98"/><polyline class="cls-2" points="2.01 376.72 2.02 376.72 31.43 376.73 34.14 376.73"/><polyline class="cls-2" points="2.02 374.35 2.02 376.72 2 440.98 2 443.36"/><polyline class="cls-2" points="31.75 439.8 31.93 440.99 39.95 494.96 40.06 495.73"/><polyline class="cls-2" points="62.37 555.24 60.27 555.92 31.81 565.16"/><polyline class="cls-2" points="11.96 504.04 11.97 504.04 39.95 494.96 42.53 494.12"/><polyline class="cls-2" points="11.23 501.77 11.97 504.04 31.81 565.16 32.54 567.42"/><polyline class="cls-2" points="59.73 554.84 60.27 555.92 84.57 604.76 84.92 605.46"/><polyline class="cls-2" points="124.52 655.17 122.74 656.46 98.52 674.04"/><polyline class="cls-2" points="60.77 622.05 84.57 604.76 86.77 603.17"/><polyline class="cls-2" points="59.37 620.12 60.77 622.05 98.52 674.04 99.92 675.97"/><polyline class="cls-2" points="121.9 655.6 122.74 656.46 160.94 695.41 161.49 695.97"/><polyline class="cls-2" points="214.51 731.01 213.22 732.79 195.62 756.99"/><polyline class="cls-2" points="143.64 719.2 160.94 695.41 162.54 693.22"/><polyline class="cls-2" points="141.72 717.8 143.64 719.2 195.62 756.99 197.54 758.39"/><polyline class="cls-2" points="212.15 732.23 213.22 732.79 261.59 758.02 262.28 758.38"/><polyline class="cls-2" points="655.11 693.46 656.4 695.24 673.98 719.46"/><polyline class="cls-2" points="621.97 757.2 604.69 733.39 603.1 731.2"/><polyline class="cls-2" points="620.04 758.6 621.97 757.2 673.98 719.46 675.9 718.06"/><polyline class="cls-2" points="655.54 696.08 656.4 695.24 695.36 657.05 695.92 656.5"/><polyline class="cls-2" points="730.97 603.49 732.75 604.78 756.95 622.39"/><polyline class="cls-2" points="719.15 674.35 695.36 657.05 693.17 655.45"/><polyline class="cls-2" points="717.75 676.27 719.15 674.35 756.95 622.39 758.35 620.46"/><polyline class="cls-2" points="732.19 605.85 732.75 604.78 758 556.42 758.36 555.72"/><polyline class="cls-2" points="775.32 494.48 777.41 495.16 805.86 504.43"/><polyline class="cls-2" points="785.97 565.53 758 556.42 755.42 555.58"/><polyline class="cls-2" points="785.23 567.79 785.97 565.53 805.86 504.43 805.87 504.43 806.6 502.17"/><polyline class="cls-2" points="777.21 496.35 777.41 495.16 786.48 441.36 786.61 440.59"/><polyline class="cls-2" points="783.82 377.1 786.02 377.1 815.95 377.13"/><polyline class="cls-2" points="815.9 441.38 786.48 441.36 783.77 441.36"/><polyline class="cls-2" points="815.9 443.76 815.9 441.38 815.95 377.13 815.95 374.75"/><polyline class="cls-2" points="786.2 378.29 786.02 377.1 778.02 323.13 777.91 322.36"/><polyline class="cls-2" points="86.87 214.58 85.09 213.28 60.88 195.69"/><polyline class="cls-2" points="98.65 143.71 122.45 161 124.64 162.6"/><polyline class="cls-2" points="100.05 141.79 98.65 143.71 60.88 195.69 59.48 197.62"/><polyline class="cls-2" points="85.64 212.22 85.09 213.28 59.86 261.66 59.5 262.36"/><polyline class="cls-2" points="42.57 323.61 40.47 322.93 12.02 313.67"/><polyline class="cls-2" points="31.88 252.56 59.86 261.66 62.44 262.5"/><polyline class="cls-2" points="32.62 250.3 31.88 252.56 12.02 313.67 11.28 315.94"/><polyline class="cls-2" points="40.67 321.74 40.47 322.93 31.43 376.73 31.3 377.5"/><path class="cls-2" d="M716,226.73A355.37,355.37,0,0,1,766,409c0,197.16-159.83,357-357,357A356.19,356.19,0,0,1,138,641.34"/><path class="cls-2" d="M101.18,589.91A355.35,355.35,0,0,1,52,409C52,211.8,211.81,52,409,52A356.15,356.15,0,0,1,679,175.4"/><path class="cls-3" d="M647,409c0,131.44-106.55,238-238,238S171,540.39,171,409,277.53,171,409,171,647,277.52,647,409Z"/><path class="cls-3" d="M656.47,409c0,136.7-110.81,247.51-247.51,247.51S161.46,545.65,161.46,409,272.27,161.45,409,161.45,656.47,272.26,656.47,409Z"/><path class="cls-3" d="M666,409c0,142-115.07,257-257,257s-257-115.07-257-257,115.07-257,257-257S666,267,666,409Z"/><path class="cls-3" d="M675.51,409C675.51,556.16,556.17,675.5,409,675.5S142.42,556.16,142.42,409,261.76,142.41,409,142.41,675.51,261.74,675.51,409Z"/><path class="cls-3" d="M685,409C685,561.42,561.43,685,409,685S132.9,561.42,132.9,409,256.5,132.89,409,132.89,685,256.49,685,409Z"/><path class="cls-3" d="M694.55,409c0,157.73-127.86,285.59-285.59,285.59S123.38,566.68,123.38,409,251.24,123.37,409,123.37,694.55,251.23,694.55,409Z"/><path class="cls-3" d="M704.07,409c0,163-132.12,295.11-295.11,295.11S113.86,571.94,113.86,409,246,113.85,409,113.85,704.07,246,704.07,409Z"/><path class="cls-3" d="M713.59,409c0,168.24-136.39,304.63-304.63,304.63S104.34,577.19,104.34,409,240.73,104.33,409,104.33,713.59,240.71,713.59,409Z"/><path class="cls-2" d="M480.36,409A71.4,71.4,0,1,1,409,337.56,71.4,71.4,0,0,1,480.36,409Z"/><path class="cls-2" d="M138,641.34a358.21,358.21,0,0,1-36.79-51.43"/><path class="cls-2" d="M679,175.4a358.4,358.4,0,0,1,37,51.33"/></g></g></svg>