<svg xmlns="http://www.w3.org/2000/svg" viewBox="0 0 213.51 217.5"><defs><style>.cls-1{fill:#f0f0f0;}.cls-2{fill:none;stroke:#000;stroke-miterlimit:10;stroke-width:4px;}</style></defs><g id="Слой_2" data-name="Слой 2"><g id="Слой_1-2" data-name="Слой 1"><path class="cls-1" d="M46.3,52.47,31.67,34.84l6.9-8.22L48,21.33,62.26,38.57,90.93,27.69,89.46,4.82,99.89,2.23l10.68,1.23L112,25.82l29.57,8,12.25-19.37,10,4,7.9,7.27-12,18.93L179,68.63l21.28-8.47,5.69,9.11,2.13,10.55L187.25,88.1l1.5,30.63,22.2,5.66-.76,10.72-4.47,9.78L184,139.35,167.22,165l14.63,17.62-6.92,8.25-9.35,5.27-14.31-17.23L122.6,189.81l1.47,22.86-10.43,2.6L103,214l-1.44-22.36-29.59-8L59.68,203l-10-4L41.8,191.7l12-18.94-19.22-23.9-21.28,8.47-5.69-9.11L5.45,137.67l20.82-8.28-1.5-30.63L2.57,93.1l.76-10.72L7.8,72.6l21.71,5.53Zm63.39,104.9a49.17,49.17,0,1,0-52.24-45.91A49.17,49.17,0,0,0,109.69,157.37Z"/><polyline class="cls-2" points="91.06 29.67 90.93 27.69 89.46 4.82 89.32 2.69"/><polyline class="cls-2" points="110.43 1.33 110.57 3.46 112.01 25.82 112.17 28.31"/><polyline class="cls-2" points="88.3 5.11 89.46 4.82 99.89 2.23 101.05 1.94"/><polyline class="cls-2" points="98.7 2.09 99.89 2.23 110.57 3.46 111.76 3.6"/><polyline class="cls-2" points="92.08 27.25 90.93 27.69 62.26 38.57 62.19 38.6"/><polyline class="cls-2" points="47.57 54 46.3 52.47 31.67 34.84 30.31 33.2"/><polyline class="cls-2" points="46.59 19.69 47.95 21.33 62.26 38.57 63.85 40.49"/><polyline class="cls-2" points="30.9 35.76 31.67 34.84 38.57 26.62 39.35 25.69"/><polyline class="cls-2" points="37.54 27.2 38.57 26.62 47.95 21.33 48.99 20.75"/><polyline class="cls-2" points="46.98 51.44 46.3 52.47 29.51 78.13 29.47 78.2"/><polyline class="cls-2" points="26.7 99.25 24.77 98.76 2.57 93.1 0.5 92.57"/><polyline class="cls-2" points="5.73 72.07 7.8 72.6 29.51 78.13 31.93 78.75"/><polyline class="cls-2" points="2.49 94.29 2.57 93.1 3.33 82.38 3.41 81.18"/><polyline class="cls-2" points="2.83 83.46 3.33 82.38 7.8 72.6 8.3 71.51"/><polyline class="cls-2" points="24.71 97.53 24.77 98.76 26.27 129.39 26.27 129.46"/><polyline class="cls-2" points="36.4 148.12 34.55 148.86 13.27 157.33 11.28 158.12"/><polyline class="cls-2" points="3.46 138.46 5.45 137.67 26.27 129.39 28.58 128.47"/><polyline class="cls-2" points="13.9 158.34 13.27 157.33 7.58 148.22 6.94 147.2"/><polyline class="cls-2" points="7.81 149.38 7.58 148.22 5.45 137.67 5.21 136.5"/><polyline class="cls-2" points="33.78 147.9 34.55 148.86 53.77 172.76 53.82 172.82"/><polyline class="cls-2" points="72.99 181.96 71.93 183.64 59.68 203 58.54 204.81"/><polyline class="cls-2" points="40.66 193.5 41.8 191.7 53.77 172.76 55.1 170.65"/><polyline class="cls-2" points="60.79 203.45 59.68 203 49.72 198.98 48.6 198.53"/><polyline class="cls-2" points="50.59 199.78 49.72 198.98 41.8 191.7 40.92 190.89"/><polyline class="cls-2" points="70.74 183.32 71.93 183.64 101.52 191.68 101.59 191.7"/><polyline class="cls-2" points="122.47 187.83 122.6 189.81 124.07 212.67 124.21 214.81"/><polyline class="cls-2" points="103.1 216.17 102.96 214.04 101.52 191.68 101.36 189.19"/><polyline class="cls-2" points="125.23 212.38 124.07 212.67 113.64 215.27 112.48 215.56"/><polyline class="cls-2" points="114.83 215.41 113.64 215.27 102.96 214.04 101.77 213.9"/><polyline class="cls-2" points="121.45 190.25 122.6 189.81 151.27 178.93 151.34 178.9"/><polyline class="cls-2" points="165.95 163.49 167.22 165.02 181.85 182.64 183.22 184.29"/><polyline class="cls-2" points="166.94 197.8 165.58 196.16 151.27 178.93 149.67 177"/><polyline class="cls-2" points="182.62 181.73 181.85 182.64 174.93 190.89 174.17 191.8"/><polyline class="cls-2" points="175.98 190.3 174.93 190.89 165.58 196.16 164.53 196.75"/><polyline class="cls-2" points="166.55 166.05 167.22 165.02 184.01 139.35 184.05 139.29"/><polyline class="cls-2" points="186.82 118.24 188.75 118.73 210.95 124.39 213.02 124.92"/><polyline class="cls-2" points="207.79 145.42 205.72 144.89 184.01 139.35 181.6 138.74"/><polyline class="cls-2" points="211.03 123.2 210.95 124.39 210.19 135.11 210.11 136.31"/><polyline class="cls-2" points="210.69 134.03 210.19 135.11 205.72 144.89 205.22 145.98"/><polyline class="cls-2" points="188.81 119.96 188.75 118.73 187.25 88.1 187.25 88.03"/><polyline class="cls-2" points="177.11 69.37 178.96 68.63 200.24 60.16 202.23 59.37"/><polyline class="cls-2" points="210.05 79.03 208.06 79.82 187.25 88.1 184.93 89.02"/><polyline class="cls-2" points="199.61 59.15 200.24 60.16 205.93 69.27 206.57 70.29"/><polyline class="cls-2" points="205.7 68.11 205.93 69.27 208.06 79.82 208.3 80.99"/><polyline class="cls-2" points="179.73 69.59 178.96 68.63 159.74 44.73 159.69 44.67"/><polyline class="cls-2" points="140.52 35.54 141.58 33.86 153.83 14.49 154.97 12.69"/><polyline class="cls-2" points="172.85 23.99 171.71 25.8 159.74 44.73 158.41 46.84"/><polyline class="cls-2" points="152.72 14.04 153.83 14.49 163.81 18.53 164.9 18.97"/><polyline class="cls-2" points="162.92 17.71 163.81 18.53 171.71 25.8 172.59 26.61"/><polyline class="cls-2" points="142.77 34.18 141.58 33.86 112.01 25.82 111.92 25.8"/><path class="cls-2" d="M155.59,105.13a49.17,49.17,0,1,1-52.23-45.9A49.17,49.17,0,0,1,155.59,105.13Z"/></g></g></svg>