<svg xmlns="http://www.w3.org/2000/svg" viewBox="0 0 1229.23 897.65"><defs><style>.cls-1{fill:#f0f0f0;}.cls-2{fill:none;stroke:#000;stroke-miterlimit:10;stroke-width:4px;}</style></defs><g id="Слой_2" data-name="Слой 2"><g id="Слой_1-2" data-name="Слой 1"><circle class="cls-1" cx="309.99" cy="338.99" r="48.5"/><path class="cls-1" d="M1102,630.57a31.45,31.45,0,1,1-29-19.21A31.37,31.37,0,0,1,1102,630.57Zm-4.52,12.24A24.46,24.46,0,1,0,1073,667.27,24.46,24.46,0,0,0,1097.5,642.81Z"/><circle class="cls-1" cx="1073.04" cy="642.81" r="24.46"/><path class="cls-1" d="M955,697.09A52.76,52.76,0,0,1,881.08,771Z"/><path class="cls-1" d="M955,697.09,881.08,771a52.64,52.64,0,0,1-9.8-9.7l74-74A52.39,52.39,0,0,1,955,697.09Z"/><path class="cls-1" d="M945.31,687.28l-74,74a52.77,52.77,0,0,1,74-74Z"/><path class="cls-1" d="M871.28,761.32A52.76,52.76,0,1,0,860.21,729,52.64,52.64,0,0,0,871.28,761.32Zm105.2-43.75A64.55,64.55,0,0,1,913,793.49a64.5,64.5,0,1,1,63.49-75.92Z"/><path class="cls-1" d="M1136.47,602.06c4.09-3.7,8.11-7.4,12-11.08a35,35,0,0,1,48.48.54l29.44,28.88C1087.87,760.75,907.07,859.28,704.64,895.34l-.15-.85-63.15-65.21.33-.32a904.94,904.94,0,0,0,222.82-56.47l.49-.43A64.5,64.5,0,0,0,977.49,729a65.11,65.11,0,0,0-1-11.42l1-.08c25.57-14.69,51.78-31.82,76-49l.74-.49A31.45,31.45,0,0,0,1102,630.57l1.47-.08C1114.46,621.46,1125.72,611.78,1136.47,602.06Z"/><path class="cls-1" d="M309,212.49A126.5,126.5,0,1,1,182.49,339,126.51,126.51,0,0,1,309,212.49ZM426.49,339A116.5,116.5,0,1,0,310,455.49,116.5,116.5,0,0,0,426.49,339Z"/><path class="cls-1" d="M310,222.49A116.5,116.5,0,1,1,193.49,339,116.5,116.5,0,0,1,310,222.49ZM416.49,339A106.5,106.5,0,1,0,310,445.49,106.5,106.5,0,0,0,416.49,339Z"/><path class="cls-1" d="M386.38,218.67A142.57,142.57,0,1,1,167.49,339,142.34,142.34,0,0,1,310,196.49,141.91,141.91,0,0,1,386.38,218.67ZM435.49,339A126.5,126.5,0,1,0,309,465.49,126.51,126.51,0,0,0,435.49,339Z"/><path class="cls-1" d="M615.61,154.81l-1.12.68-153,109-.14.23-54.16-33.45,62.86-45L492.83,170l45.37-32.48,27.51-19.69,15.33-11A356.12,356.12,0,0,1,615.61,154.81Z"/><path class="cls-1" d="M222.6,132.1a48,48,0,1,1,25.89-42.61A47.7,47.7,0,0,1,222.6,132.1Zm-7.11-42.61a15,15,0,1,0-15,15A15,15,0,0,0,215.49,89.49Z"/><path class="cls-1" d="M565.49,117.49l.22.3L538.2,137.48l-.71-1c-5.23-6.41-13.59-12-22.5-12a28.49,28.49,0,0,0-28.5,28.5c0,5.43,3.36,12.18,6,16.5l.34.47-22.78,16.31-.56-.78c-40-40-99-67-160-67-31.95,0-59.67,1.77-86.89,13.61a48,48,0,0,0-8.13-88.54l0-.07c48.6,0,100.95-11.12,134.79-40.93C438.59,10.33,509.42,54.66,565.49,117.49ZM380.49,56A13.5,13.5,0,1,0,367,69.49,13.51,13.51,0,0,0,380.49,56Z"/><path class="cls-1" d="M169.07,360.26l-1.58.23h-19a21,21,0,0,1,0-42h18l2.41.35a144.31,144.31,0,0,0,.17,41.42ZM153.49,339a6.5,6.5,0,1,0-6.5,6.5A6.51,6.51,0,0,0,153.49,339Z"/><path class="cls-1" d="M179.42,396.15a142.76,142.76,0,0,0,33.49,47.16l-.42,1.18-175,125-.12.1a357,357,0,0,1-34.29-47.8l.25-.15,175-125Z"/><path class="cls-1" d="M310.28,400.51A15,15,0,1,1,295,415.21,15,15,0,0,1,310.28,400.51Z"/><circle class="cls-1" cx="308.49" cy="262.49" r="15"/><path class="cls-1" d="M310,232.49A106.5,106.5,0,1,1,203.49,339,106.5,106.5,0,0,1,310,232.49ZM358.49,339a48.5,48.5,0,1,0-48.5,48.5A48.51,48.51,0,0,0,358.49,339ZM325,415.8a15,15,0,1,0-15.29,14.7A15,15,0,0,0,325,415.8Zm-1.49-153.31a15,15,0,1,0-15,15A15,15,0,0,0,323.49,262.49Z"/><path class="cls-1" d="M452.49,339a142.4,142.4,0,0,0-66.11-120.32l.11-.18,20.7,12.78,54.16,33.45L712.1,419.55a286.23,286.23,0,0,0,42.65,22.29l381.72,160.22c-10.75,9.72-22,19.4-33,28.43l-1.47.08A31.45,31.45,0,1,0,1054.23,668l-.74.49c-24.22,17.18-50.43,34.31-76,49l-1,.08A64.5,64.5,0,1,0,865,772.06l-.49.43A904.94,904.94,0,0,1,641.67,829l-.33.32L363.08,542a34.14,34.14,0,0,0-51.66,3l-22.68,29.73a28.81,28.81,0,0,1-29.33,10.6l-66.23-15.18a11.74,11.74,0,0,1-8.76-14.32l28.07-111.36.42-1.18A142.5,142.5,0,0,0,452.49,339Zm399,275.5c14.93-21.62.41-58.28-22-72l-276.86-125A76.26,76.26,0,0,0,463,434.41l-63.48,69.08,351,260Zm-582-85a20,20,0,1,0-20,20A20,20,0,0,0,269.49,529.49Z"/><path class="cls-2" d="M1227.8,619l-1.4,1.41C1087.87,760.75,907.07,859.28,704.64,895.34l-1.9.34"/><path class="cls-2" d="M38.51,570.93l-1.14-1.34a357,357,0,0,1-34.29-47.8c-.46-.76-.91-1.52-1.36-2.28"/><path class="cls-2" d="M579.49,105c.52.6,1,1.2,1.55,1.81a356.12,356.12,0,0,1,34.57,48c.31.5.62,1,.92,1.52"/><path class="cls-2" d="M1137.49,602.49l-1-.43L754.75,441.84a286.23,286.23,0,0,1-42.65-22.29L461.35,264.72l-54.16-33.45-20.7-12.78"/><path class="cls-2" d="M864.49,772.49A904.94,904.94,0,0,1,641.67,829"/><path class="cls-2" d="M1053.49,668.49c-24.22,17.18-50.43,34.31-76,49"/><path class="cls-2" d="M1226.49,620.49l-.09-.09L1197,591.52a35,35,0,0,0-48.48-.54c-3.9,3.68-7.92,7.38-12,11.08-10.75,9.72-22,19.4-33,28.43"/><path class="cls-2" d="M704.49,894.49l-63.15-65.21L363.08,542a34.14,34.14,0,0,0-51.66,3l-22.68,29.73a28.81,28.81,0,0,1-29.33,10.6l-66.23-15.18a11.74,11.74,0,0,1-8.76-14.32l28.07-111.36"/><path class="cls-2" d="M750.49,763.49l-351-260L463,434.41a76.26,76.26,0,0,1,89.66-16.92l276.86,125c22.41,13.72,36.93,50.38,22,72Z"/><path class="cls-2" d="M386.38,218.67A142.57,142.57,0,1,1,167.49,339,142.34,142.34,0,0,1,310,196.49,141.91,141.91,0,0,1,386.38,218.67Z"/><circle class="cls-2" cx="308.99" cy="338.99" r="126.5"/><circle class="cls-2" cx="309.99" cy="338.99" r="116.5"/><circle class="cls-2" cx="309.99" cy="338.99" r="106.5"/><circle class="cls-2" cx="309.99" cy="338.99" r="48.5"/><circle class="cls-2" cx="308.49" cy="262.49" r="15"/><path class="cls-2" d="M295,415.21a15,15,0,1,1,14.7,15.29A15,15,0,0,1,295,415.21Z"/><path class="cls-2" d="M955,697.09a52.7,52.7,0,1,1-9.7-9.81A52.44,52.44,0,0,1,955,697.09Z"/><path class="cls-2" d="M976.48,717.57A64.55,64.55,0,0,1,913,793.49a64.5,64.5,0,1,1,63.49-75.92Z"/><polyline class="cls-2" points="945.82 686.77 945.31 687.28 871.28 761.32 870.77 761.83"/><polyline class="cls-2" points="955.19 696.91 955.01 697.09 881.08 771.02 880.14 771.96"/><circle class="cls-2" cx="1073.04" cy="642.81" r="24.46"/><path class="cls-2" d="M1102,630.57a31.45,31.45,0,1,1-29-19.21A31.37,31.37,0,0,1,1102,630.57Z"/><line class="cls-2" x1="212.49" y1="444.49" x2="37.49" y2="569.49"/><line class="cls-2" x1="178.33" y1="396.64" x2="3.33" y2="521.64"/><line class="cls-2" x1="614.49" y1="155.49" x2="461.49" y2="264.49"/><polyline class="cls-2" points="581.49 106.49 581.04 106.81 565.71 117.79 538.2 137.48 492.83 169.96 470.05 186.27 407.19 231.27 405.49 232.49"/><path class="cls-2" d="M348.49,2.49l.79.07c89.31,7.77,160.14,52.1,216.21,114.93"/><path class="cls-2" d="M214.47,43.56a48,48,0,1,1-14-2.07A48,48,0,0,1,214.47,43.56Z"/><path class="cls-2" d="M350.49,1.49c-.4.36-.8.72-1.21,1.07-33.84,29.81-86.19,40.93-134.79,40.93"/><path class="cls-2" d="M219.49,133.49c1-.48,2.07-.94,3.11-1.39,27.22-11.84,54.94-13.61,86.89-13.61,61,0,120,27,160,67"/><path class="cls-2" d="M492.49,169.49c-2.64-4.32-6-11.07-6-16.5a28.49,28.49,0,0,1,28.5-28.5c8.91,0,17.27,5.59,22.5,12"/><circle class="cls-2" cx="366.99" cy="55.99" r="13.5"/><circle class="cls-2" cx="200.49" cy="89.49" r="15"/><path class="cls-2" d="M148.49,360.49a21,21,0,0,1,0-42"/><line class="cls-2" x1="148.49" y1="318.49" x2="166.49" y2="318.49"/><line class="cls-2" x1="148.49" y1="360.49" x2="167.49" y2="360.49"/><circle class="cls-2" cx="146.99" cy="338.99" r="6.5"/><circle class="cls-2" cx="249.49" cy="529.49" r="20"/></g></g></svg>