<svg xmlns="http://www.w3.org/2000/svg" viewBox="0 0 94 94"><defs><style>.cls-1{fill:#f0f0f0;}.cls-2{fill:none;stroke:#000;stroke-miterlimit:10;stroke-width:4px;}</style></defs><g id="Слой_2" data-name="Слой 2"><g id="Слой_1-2" data-name="Слой 1"><path class="cls-1" d="M47,2A45,45,0,1,1,2,47,45,45,0,0,1,47,2ZM82,47A35,35,0,1,0,47,82,35,35,0,0,0,82,47Z"/><circle class="cls-1" cx="47" cy="47" r="15"/><path class="cls-1" d="M47,12A35,35,0,1,1,12,47,35,35,0,0,1,47,12ZM62,47A15,15,0,1,0,47,62,15,15,0,0,0,62,47Z"/><circle class="cls-2" cx="47" cy="47" r="35"/><circle class="cls-2" cx="47" cy="47" r="45"/><circle class="cls-2" cx="47" cy="47" r="15"/></g></g></svg>