<svg xmlns="http://www.w3.org/2000/svg" viewBox="0 0 179.89 185.94"><defs><style>.cls-1{fill:#f0f0f0;}.cls-2{fill:none;stroke:#000;stroke-miterlimit:10;stroke-width:4px;}</style></defs><g id="Слой_2" data-name="Слой 2"><g id="Слой_1-2" data-name="Слой 1"><path class="cls-1" d="M138.44,41.52l15,21.35,18.53-6,4.34,8L177.54,74l-18.12,5.89-.4,26.09,18.53,6L176.33,121,172,129.08l-18.12-5.89L138.2,144.05l11.46,15.77-6.33,6.63-8.23,4L123.9,155,99,162.66v19.49l-9,1.64-9-1.64V163.09l-24.69-8.44L44.82,170.41l-8.23-3.95-6.33-6.62,11.19-15.42-15-21.35-18.54,6L3.57,121l-1.21-9,18.12-5.89.4-26.1L2.35,74,3.57,64.9l4.34-8.05L26,62.74,41.7,41.88,30.25,26.11l6.31-6.61,8.25-4L56,31,81,23.28V3.79l9-1.64,9,1.64V22.85l24.67,8.44,11.45-15.77,8.25,4,6.32,6.61ZM145,93a55,55,0,1,0-55,55A55,55,0,0,0,145,93Z"/><circle class="cls-2" cx="89.95" cy="92.97" r="55"/><polyline class="cls-2" points="80.95 24.97 80.95 23.28 80.95 3.79 80.95 1.97"/><polyline class="cls-2" points="98.95 1.97 98.95 3.79 98.95 22.85 98.95 24.97"/><polyline class="cls-2" points="79.95 3.97 80.95 3.79 89.95 2.15 90.95 1.97"/><polyline class="cls-2" points="88.95 1.97 89.95 2.15 98.95 3.79 99.95 3.97"/><polyline class="cls-2" points="81.95 22.97 80.95 23.28 56.01 30.95 55.95 30.97"/><polyline class="cls-2" points="42.7 43.25 41.7 41.88 30.25 26.11 29.18 24.64"/><polyline class="cls-2" points="43.74 14.06 44.81 15.53 56.01 30.95 57.26 32.67"/><polyline class="cls-2" points="29.55 26.85 30.25 26.11 36.56 19.5 37.27 18.76"/><polyline class="cls-2" points="35.65 19.94 36.56 19.5 44.81 15.53 45.73 15.09"/><polyline class="cls-2" points="42.33 41.04 41.7 41.88 26.04 62.74 26 62.8"/><polyline class="cls-2" points="22.5 80.52 20.88 79.99 2.35 73.97 0.62 73.41"/><polyline class="cls-2" points="6.18 56.29 7.91 56.85 26.04 62.74 28.06 63.4"/><polyline class="cls-2" points="2.21 74.98 2.35 73.97 3.57 64.9 3.71 63.9"/><polyline class="cls-2" points="3.09 65.8 3.57 64.9 7.91 56.85 8.39 55.96"/><polyline class="cls-2" points="20.9 78.95 20.88 79.99 20.48 106.09 20.48 106.15"/><polyline class="cls-2" points="28.06 122.55 26.46 123.07 7.92 129.1 6.19 129.66"/><polyline class="cls-2" points="0.62 112.54 2.36 111.98 20.48 106.09 22.5 105.43"/><polyline class="cls-2" points="8.4 129.99 7.92 129.1 3.57 121.03 3.1 120.15"/><polyline class="cls-2" points="3.71 122.05 3.57 121.03 2.36 111.98 2.22 110.97"/><polyline class="cls-2" points="25.85 122.21 26.46 123.07 41.45 144.42 41.49 144.47"/><polyline class="cls-2" points="57.27 153.28 56.27 154.65 44.82 170.41 43.75 171.88"/><polyline class="cls-2" points="29.19 161.31 30.26 159.84 41.45 144.42 42.7 142.7"/><polyline class="cls-2" points="45.73 170.85 44.82 170.41 36.59 166.46 35.66 166.01"/><polyline class="cls-2" points="37.28 167.18 36.59 166.46 30.26 159.84 29.55 159.1"/><polyline class="cls-2" points="55.28 154.31 56.27 154.65 80.96 163.09 81.02 163.11"/><polyline class="cls-2" points="98.96 160.97 98.96 162.66 98.96 182.15 98.96 183.97"/><polyline class="cls-2" points="80.96 183.97 80.96 182.15 80.96 163.09 80.96 160.97"/><polyline class="cls-2" points="99.96 181.97 98.96 182.15 89.96 183.79 88.96 183.97"/><polyline class="cls-2" points="90.96 183.97 89.96 183.79 80.96 182.15 79.96 181.97"/><polyline class="cls-2" points="97.96 162.97 98.96 162.66 123.9 154.99 123.96 154.97"/><polyline class="cls-2" points="137.21 142.69 138.2 144.05 149.66 159.82 150.73 161.29"/><polyline class="cls-2" points="136.17 171.87 135.1 170.4 123.9 154.99 122.65 153.27"/><polyline class="cls-2" points="150.36 159.09 149.66 159.82 143.33 166.45 142.64 167.17"/><polyline class="cls-2" points="144.26 166 143.33 166.45 135.1 170.4 134.18 170.84"/><polyline class="cls-2" points="137.57 144.89 138.2 144.05 153.87 123.19 153.9 123.14"/><polyline class="cls-2" points="157.41 105.41 159.02 105.93 177.55 111.96 179.28 112.52"/><polyline class="cls-2" points="173.72 129.64 171.99 129.08 153.87 123.19 151.85 122.53"/><polyline class="cls-2" points="177.69 110.95 177.55 111.96 176.33 121.03 176.19 122.03"/><polyline class="cls-2" points="176.81 120.13 176.33 121.03 171.99 129.08 171.51 129.97"/><polyline class="cls-2" points="159 106.98 159.02 105.93 159.42 79.84 159.42 79.78"/><polyline class="cls-2" points="151.84 63.39 153.45 62.87 171.98 56.83 173.71 56.27"/><polyline class="cls-2" points="179.27 73.39 177.54 73.95 159.42 79.84 157.4 80.5"/><polyline class="cls-2" points="171.5 55.94 171.98 56.83 176.32 64.88 176.8 65.78"/><polyline class="cls-2" points="176.18 63.88 176.32 64.88 177.54 73.95 177.68 74.96"/><polyline class="cls-2" points="154.05 63.72 153.45 62.87 138.44 41.52 138.4 41.47"/><polyline class="cls-2" points="122.63 32.66 123.62 31.29 135.07 15.52 136.14 14.05"/><polyline class="cls-2" points="150.71 24.63 149.64 26.1 138.44 41.52 137.19 43.24"/><polyline class="cls-2" points="134.16 15.08 135.07 15.52 143.32 19.49 144.23 19.93"/><polyline class="cls-2" points="142.61 18.75 143.32 19.49 149.64 26.1 150.34 26.83"/><polyline class="cls-2" points="124.61 31.63 123.62 31.29 98.95 22.85 98.87 22.82"/></g></g></svg>